<?xml version="1.0" encoding="utf-8" standalone="no"?>
<!DOCTYPE svg PUBLIC "-//W3C//DTD SVG 1.1//EN"
  "http://www.w3.org/Graphics/SVG/1.1/DTD/svg11.dtd">
<svg xmlns:xlink="http://www.w3.org/1999/xlink" width="460.8pt" height="345.6pt" viewBox="0 0 460.8 345.6" xmlns="http://www.w3.org/2000/svg" version="1.1">
 <metadata>
  <rdf:RDF xmlns:dc="http://purl.org/dc/elements/1.1/" xmlns:cc="http://creativecommons.org/ns#" xmlns:rdf="http://www.w3.org/1999/02/22-rdf-syntax-ns#">
   <cc:Work>
    <dc:type rdf:resource="http://purl.org/dc/dcmitype/StillImage"/>
    <dc:date>2025-05-14T11:40:31.434321</dc:date>
    <dc:format>image/svg+xml</dc:format>
    <dc:creator>
     <cc:Agent>
      <dc:title>Matplotlib v3.10.1, https://matplotlib.org/</dc:title>
     </cc:Agent>
    </dc:creator>
   </cc:Work>
  </rdf:RDF>
 </metadata>
 <defs>
  <style type="text/css">*{stroke-linejoin: round; stroke-linecap: butt}</style>
 </defs>
 <g id="figure_1">
  <g id="patch_1">
   <path d="M 0 345.6 
L 460.8 345.6 
L 460.8 0 
L 0 0 
z
" style="fill: #ffffff"/>
  </g>
  <g id="axes_1">
   <g id="patch_2">
    <path d="M 57.6 307.584 
L 414.72 307.584 
L 414.72 41.472 
L 57.6 41.472 
z
" style="fill: #ffffff"/>
   </g>
   <g id="patch_3">
    <path d="M 73.832727 307.584 
L 80.325818 307.584 
L 80.325818 223.104 
L 73.832727 223.104 
z
" clip-path="url(#pf3149715e2)" style="fill: #4682b4; fill-opacity: 0.5; stroke: #000000; stroke-width: 0.649309; stroke-linejoin: miter"/>
   </g>
   <g id="patch_4">
    <path d="M 80.325818 307.584 
L 86.818909 307.584 
L 86.818909 307.584 
L 80.325818 307.584 
z
" clip-path="url(#pf3149715e2)" style="fill: #4682b4; fill-opacity: 0.5; stroke: #000000; stroke-width: 0.649309; stroke-linejoin: miter"/>
   </g>
   <g id="patch_5">
    <path d="M 86.818909 307.584 
L 93.312 307.584 
L 93.312 307.584 
L 86.818909 307.584 
z
" clip-path="url(#pf3149715e2)" style="fill: #4682b4; fill-opacity: 0.5; stroke: #000000; stroke-width: 0.649309; stroke-linejoin: miter"/>
   </g>
   <g id="patch_6">
    <path d="M 93.312 307.584 
L 99.805091 307.584 
L 99.805091 307.584 
L 93.312 307.584 
z
" clip-path="url(#pf3149715e2)" style="fill: #4682b4; fill-opacity: 0.5; stroke: #000000; stroke-width: 0.649309; stroke-linejoin: miter"/>
   </g>
   <g id="patch_7">
    <path d="M 99.805091 307.584 
L 106.298182 307.584 
L 106.298182 307.584 
L 99.805091 307.584 
z
" clip-path="url(#pf3149715e2)" style="fill: #4682b4; fill-opacity: 0.5; stroke: #000000; stroke-width: 0.649309; stroke-linejoin: miter"/>
   </g>
   <g id="patch_8">
    <path d="M 106.298182 307.584 
L 112.791273 307.584 
L 112.791273 307.584 
L 106.298182 307.584 
z
" clip-path="url(#pf3149715e2)" style="fill: #4682b4; fill-opacity: 0.5; stroke: #000000; stroke-width: 0.649309; stroke-linejoin: miter"/>
   </g>
   <g id="patch_9">
    <path d="M 112.791273 307.584 
L 119.284364 307.584 
L 119.284364 307.584 
L 112.791273 307.584 
z
" clip-path="url(#pf3149715e2)" style="fill: #4682b4; fill-opacity: 0.5; stroke: #000000; stroke-width: 0.649309; stroke-linejoin: miter"/>
   </g>
   <g id="patch_10">
    <path d="M 119.284364 307.584 
L 125.777455 307.584 
L 125.777455 307.584 
L 119.284364 307.584 
z
" clip-path="url(#pf3149715e2)" style="fill: #4682b4; fill-opacity: 0.5; stroke: #000000; stroke-width: 0.649309; stroke-linejoin: miter"/>
   </g>
   <g id="patch_11">
    <path d="M 125.777455 307.584 
L 132.270545 307.584 
L 132.270545 307.584 
L 125.777455 307.584 
z
" clip-path="url(#pf3149715e2)" style="fill: #4682b4; fill-opacity: 0.5; stroke: #000000; stroke-width: 0.649309; stroke-linejoin: miter"/>
   </g>
   <g id="patch_12">
    <path d="M 132.270545 307.584 
L 138.763636 307.584 
L 138.763636 307.584 
L 132.270545 307.584 
z
" clip-path="url(#pf3149715e2)" style="fill: #4682b4; fill-opacity: 0.5; stroke: #000000; stroke-width: 0.649309; stroke-linejoin: miter"/>
   </g>
   <g id="patch_13">
    <path d="M 138.763636 307.584 
L 145.256727 307.584 
L 145.256727 307.584 
L 138.763636 307.584 
z
" clip-path="url(#pf3149715e2)" style="fill: #4682b4; fill-opacity: 0.5; stroke: #000000; stroke-width: 0.649309; stroke-linejoin: miter"/>
   </g>
   <g id="patch_14">
    <path d="M 145.256727 307.584 
L 151.749818 307.584 
L 151.749818 223.104 
L 145.256727 223.104 
z
" clip-path="url(#pf3149715e2)" style="fill: #4682b4; fill-opacity: 0.5; stroke: #000000; stroke-width: 0.649309; stroke-linejoin: miter"/>
   </g>
   <g id="patch_15">
    <path d="M 151.749818 307.584 
L 158.242909 307.584 
L 158.242909 307.584 
L 151.749818 307.584 
z
" clip-path="url(#pf3149715e2)" style="fill: #4682b4; fill-opacity: 0.5; stroke: #000000; stroke-width: 0.649309; stroke-linejoin: miter"/>
   </g>
   <g id="patch_16">
    <path d="M 158.242909 307.584 
L 164.736 307.584 
L 164.736 138.624 
L 158.242909 138.624 
z
" clip-path="url(#pf3149715e2)" style="fill: #4682b4; fill-opacity: 0.5; stroke: #000000; stroke-width: 0.649309; stroke-linejoin: miter"/>
   </g>
   <g id="patch_17">
    <path d="M 164.736 307.584 
L 171.229091 307.584 
L 171.229091 307.584 
L 164.736 307.584 
z
" clip-path="url(#pf3149715e2)" style="fill: #4682b4; fill-opacity: 0.5; stroke: #000000; stroke-width: 0.649309; stroke-linejoin: miter"/>
   </g>
   <g id="patch_18">
    <path d="M 171.229091 307.584 
L 177.722182 307.584 
L 177.722182 223.104 
L 171.229091 223.104 
z
" clip-path="url(#pf3149715e2)" style="fill: #4682b4; fill-opacity: 0.5; stroke: #000000; stroke-width: 0.649309; stroke-linejoin: miter"/>
   </g>
   <g id="patch_19">
    <path d="M 177.722182 307.584 
L 184.215273 307.584 
L 184.215273 223.104 
L 177.722182 223.104 
z
" clip-path="url(#pf3149715e2)" style="fill: #4682b4; fill-opacity: 0.5; stroke: #000000; stroke-width: 0.649309; stroke-linejoin: miter"/>
   </g>
   <g id="patch_20">
    <path d="M 184.215273 307.584 
L 190.708364 307.584 
L 190.708364 54.144 
L 184.215273 54.144 
z
" clip-path="url(#pf3149715e2)" style="fill: #4682b4; fill-opacity: 0.5; stroke: #000000; stroke-width: 0.649309; stroke-linejoin: miter"/>
   </g>
   <g id="patch_21">
    <path d="M 190.708364 307.584 
L 197.201455 307.584 
L 197.201455 138.624 
L 190.708364 138.624 
z
" clip-path="url(#pf3149715e2)" style="fill: #4682b4; fill-opacity: 0.5; stroke: #000000; stroke-width: 0.649309; stroke-linejoin: miter"/>
   </g>
   <g id="patch_22">
    <path d="M 197.201455 307.584 
L 203.694545 307.584 
L 203.694545 138.624 
L 197.201455 138.624 
z
" clip-path="url(#pf3149715e2)" style="fill: #4682b4; fill-opacity: 0.5; stroke: #000000; stroke-width: 0.649309; stroke-linejoin: miter"/>
   </g>
   <g id="patch_23">
    <path d="M 203.694545 307.584 
L 210.187636 307.584 
L 210.187636 54.144 
L 203.694545 54.144 
z
" clip-path="url(#pf3149715e2)" style="fill: #4682b4; fill-opacity: 0.5; stroke: #000000; stroke-width: 0.649309; stroke-linejoin: miter"/>
   </g>
   <g id="patch_24">
    <path d="M 210.187636 307.584 
L 216.680727 307.584 
L 216.680727 223.104 
L 210.187636 223.104 
z
" clip-path="url(#pf3149715e2)" style="fill: #4682b4; fill-opacity: 0.5; stroke: #000000; stroke-width: 0.649309; stroke-linejoin: miter"/>
   </g>
   <g id="patch_25">
    <path d="M 216.680727 307.584 
L 223.173818 307.584 
L 223.173818 54.144 
L 216.680727 54.144 
z
" clip-path="url(#pf3149715e2)" style="fill: #4682b4; fill-opacity: 0.5; stroke: #000000; stroke-width: 0.649309; stroke-linejoin: miter"/>
   </g>
   <g id="patch_26">
    <path d="M 223.173818 307.584 
L 229.666909 307.584 
L 229.666909 138.624 
L 223.173818 138.624 
z
" clip-path="url(#pf3149715e2)" style="fill: #4682b4; fill-opacity: 0.5; stroke: #000000; stroke-width: 0.649309; stroke-linejoin: miter"/>
   </g>
   <g id="patch_27">
    <path d="M 229.666909 307.584 
L 236.16 307.584 
L 236.16 223.104 
L 229.666909 223.104 
z
" clip-path="url(#pf3149715e2)" style="fill: #4682b4; fill-opacity: 0.5; stroke: #000000; stroke-width: 0.649309; stroke-linejoin: miter"/>
   </g>
   <g id="patch_28">
    <path d="M 236.16 307.584 
L 242.653091 307.584 
L 242.653091 138.624 
L 236.16 138.624 
z
" clip-path="url(#pf3149715e2)" style="fill: #4682b4; fill-opacity: 0.5; stroke: #000000; stroke-width: 0.649309; stroke-linejoin: miter"/>
   </g>
   <g id="patch_29">
    <path d="M 242.653091 307.584 
L 249.146182 307.584 
L 249.146182 54.144 
L 242.653091 54.144 
z
" clip-path="url(#pf3149715e2)" style="fill: #4682b4; fill-opacity: 0.5; stroke: #000000; stroke-width: 0.649309; stroke-linejoin: miter"/>
   </g>
   <g id="patch_30">
    <path d="M 249.146182 307.584 
L 255.639273 307.584 
L 255.639273 54.144 
L 249.146182 54.144 
z
" clip-path="url(#pf3149715e2)" style="fill: #4682b4; fill-opacity: 0.5; stroke: #000000; stroke-width: 0.649309; stroke-linejoin: miter"/>
   </g>
   <g id="patch_31">
    <path d="M 255.639273 307.584 
L 262.132364 307.584 
L 262.132364 138.624 
L 255.639273 138.624 
z
" clip-path="url(#pf3149715e2)" style="fill: #4682b4; fill-opacity: 0.5; stroke: #000000; stroke-width: 0.649309; stroke-linejoin: miter"/>
   </g>
   <g id="patch_32">
    <path d="M 262.132364 307.584 
L 268.625455 307.584 
L 268.625455 138.624 
L 262.132364 138.624 
z
" clip-path="url(#pf3149715e2)" style="fill: #4682b4; fill-opacity: 0.5; stroke: #000000; stroke-width: 0.649309; stroke-linejoin: miter"/>
   </g>
   <g id="patch_33">
    <path d="M 268.625455 307.584 
L 275.118545 307.584 
L 275.118545 138.624 
L 268.625455 138.624 
z
" clip-path="url(#pf3149715e2)" style="fill: #4682b4; fill-opacity: 0.5; stroke: #000000; stroke-width: 0.649309; stroke-linejoin: miter"/>
   </g>
   <g id="patch_34">
    <path d="M 275.118545 307.584 
L 281.611636 307.584 
L 281.611636 223.104 
L 275.118545 223.104 
z
" clip-path="url(#pf3149715e2)" style="fill: #4682b4; fill-opacity: 0.5; stroke: #000000; stroke-width: 0.649309; stroke-linejoin: miter"/>
   </g>
   <g id="patch_35">
    <path d="M 281.611636 307.584 
L 288.104727 307.584 
L 288.104727 307.584 
L 281.611636 307.584 
z
" clip-path="url(#pf3149715e2)" style="fill: #4682b4; fill-opacity: 0.5; stroke: #000000; stroke-width: 0.649309; stroke-linejoin: miter"/>
   </g>
   <g id="patch_36">
    <path d="M 288.104727 307.584 
L 294.597818 307.584 
L 294.597818 307.584 
L 288.104727 307.584 
z
" clip-path="url(#pf3149715e2)" style="fill: #4682b4; fill-opacity: 0.5; stroke: #000000; stroke-width: 0.649309; stroke-linejoin: miter"/>
   </g>
   <g id="patch_37">
    <path d="M 294.597818 307.584 
L 301.090909 307.584 
L 301.090909 138.624 
L 294.597818 138.624 
z
" clip-path="url(#pf3149715e2)" style="fill: #4682b4; fill-opacity: 0.5; stroke: #000000; stroke-width: 0.649309; stroke-linejoin: miter"/>
   </g>
   <g id="patch_38">
    <path d="M 301.090909 307.584 
L 307.584 307.584 
L 307.584 138.624 
L 301.090909 138.624 
z
" clip-path="url(#pf3149715e2)" style="fill: #4682b4; fill-opacity: 0.5; stroke: #000000; stroke-width: 0.649309; stroke-linejoin: miter"/>
   </g>
   <g id="patch_39">
    <path d="M 307.584 307.584 
L 314.077091 307.584 
L 314.077091 223.104 
L 307.584 223.104 
z
" clip-path="url(#pf3149715e2)" style="fill: #4682b4; fill-opacity: 0.5; stroke: #000000; stroke-width: 0.649309; stroke-linejoin: miter"/>
   </g>
   <g id="patch_40">
    <path d="M 314.077091 307.584 
L 320.570182 307.584 
L 320.570182 223.104 
L 314.077091 223.104 
z
" clip-path="url(#pf3149715e2)" style="fill: #4682b4; fill-opacity: 0.5; stroke: #000000; stroke-width: 0.649309; stroke-linejoin: miter"/>
   </g>
   <g id="patch_41">
    <path d="M 320.570182 307.584 
L 327.063273 307.584 
L 327.063273 307.584 
L 320.570182 307.584 
z
" clip-path="url(#pf3149715e2)" style="fill: #4682b4; fill-opacity: 0.5; stroke: #000000; stroke-width: 0.649309; stroke-linejoin: miter"/>
   </g>
   <g id="patch_42">
    <path d="M 327.063273 307.584 
L 333.556364 307.584 
L 333.556364 307.584 
L 327.063273 307.584 
z
" clip-path="url(#pf3149715e2)" style="fill: #4682b4; fill-opacity: 0.5; stroke: #000000; stroke-width: 0.649309; stroke-linejoin: miter"/>
   </g>
   <g id="patch_43">
    <path d="M 333.556364 307.584 
L 340.049455 307.584 
L 340.049455 223.104 
L 333.556364 223.104 
z
" clip-path="url(#pf3149715e2)" style="fill: #4682b4; fill-opacity: 0.5; stroke: #000000; stroke-width: 0.649309; stroke-linejoin: miter"/>
   </g>
   <g id="patch_44">
    <path d="M 340.049455 307.584 
L 346.542545 307.584 
L 346.542545 138.624 
L 340.049455 138.624 
z
" clip-path="url(#pf3149715e2)" style="fill: #4682b4; fill-opacity: 0.5; stroke: #000000; stroke-width: 0.649309; stroke-linejoin: miter"/>
   </g>
   <g id="patch_45">
    <path d="M 346.542545 307.584 
L 353.035636 307.584 
L 353.035636 223.104 
L 346.542545 223.104 
z
" clip-path="url(#pf3149715e2)" style="fill: #4682b4; fill-opacity: 0.5; stroke: #000000; stroke-width: 0.649309; stroke-linejoin: miter"/>
   </g>
   <g id="patch_46">
    <path d="M 353.035636 307.584 
L 359.528727 307.584 
L 359.528727 307.584 
L 353.035636 307.584 
z
" clip-path="url(#pf3149715e2)" style="fill: #4682b4; fill-opacity: 0.5; stroke: #000000; stroke-width: 0.649309; stroke-linejoin: miter"/>
   </g>
   <g id="patch_47">
    <path d="M 359.528727 307.584 
L 366.021818 307.584 
L 366.021818 307.584 
L 359.528727 307.584 
z
" clip-path="url(#pf3149715e2)" style="fill: #4682b4; fill-opacity: 0.5; stroke: #000000; stroke-width: 0.649309; stroke-linejoin: miter"/>
   </g>
   <g id="patch_48">
    <path d="M 366.021818 307.584 
L 372.514909 307.584 
L 372.514909 307.584 
L 366.021818 307.584 
z
" clip-path="url(#pf3149715e2)" style="fill: #4682b4; fill-opacity: 0.5; stroke: #000000; stroke-width: 0.649309; stroke-linejoin: miter"/>
   </g>
   <g id="patch_49">
    <path d="M 372.514909 307.584 
L 379.008 307.584 
L 379.008 307.584 
L 372.514909 307.584 
z
" clip-path="url(#pf3149715e2)" style="fill: #4682b4; fill-opacity: 0.5; stroke: #000000; stroke-width: 0.649309; stroke-linejoin: miter"/>
   </g>
   <g id="patch_50">
    <path d="M 379.008 307.584 
L 385.501091 307.584 
L 385.501091 307.584 
L 379.008 307.584 
z
" clip-path="url(#pf3149715e2)" style="fill: #4682b4; fill-opacity: 0.5; stroke: #000000; stroke-width: 0.649309; stroke-linejoin: miter"/>
   </g>
   <g id="patch_51">
    <path d="M 385.501091 307.584 
L 391.994182 307.584 
L 391.994182 307.584 
L 385.501091 307.584 
z
" clip-path="url(#pf3149715e2)" style="fill: #4682b4; fill-opacity: 0.5; stroke: #000000; stroke-width: 0.649309; stroke-linejoin: miter"/>
   </g>
   <g id="patch_52">
    <path d="M 391.994182 307.584 
L 398.487273 307.584 
L 398.487273 138.624 
L 391.994182 138.624 
z
" clip-path="url(#pf3149715e2)" style="fill: #4682b4; fill-opacity: 0.5; stroke: #000000; stroke-width: 0.649309; stroke-linejoin: miter"/>
   </g>
   <g id="matplotlib.axis_1">
    <g id="xtick_1">
     <g id="line2d_1">
      <defs>
       <path id="m910e42c8e1" d="M 0 0 
L 0 3.5 
" style="stroke: #000000; stroke-width: 0.8"/>
      </defs>
      <g>
       <use xlink:href="#m910e42c8e1" x="58.854432" y="307.584" style="stroke: #000000; stroke-width: 0.8"/>
      </g>
     </g>
     <g id="text_1">
      <!-- 0 -->
      <g transform="translate(55.673182 322.182437) scale(0.1 -0.1)">
       <defs>
        <path id="DejaVuSans-30" d="M 2034 4250 
Q 1547 4250 1301 3770 
Q 1056 3291 1056 2328 
Q 1056 1369 1301 889 
Q 1547 409 2034 409 
Q 2525 409 2770 889 
Q 3016 1369 3016 2328 
Q 3016 3291 2770 3770 
Q 2525 4250 2034 4250 
z
M 2034 4750 
Q 2819 4750 3233 4129 
Q 3647 3509 3647 2328 
Q 3647 1150 3233 529 
Q 2819 -91 2034 -91 
Q 1250 -91 836 529 
Q 422 1150 422 2328 
Q 422 3509 836 4129 
Q 1250 4750 2034 4750 
z
" transform="scale(0.015625)"/>
       </defs>
       <use xlink:href="#DejaVuSans-30"/>
      </g>
     </g>
    </g>
    <g id="xtick_2">
     <g id="line2d_2">
      <g>
       <use xlink:href="#m910e42c8e1" x="133.745908" y="307.584" style="stroke: #000000; stroke-width: 0.8"/>
      </g>
     </g>
     <g id="text_2">
      <!-- 200 -->
      <g transform="translate(124.202158 322.182437) scale(0.1 -0.1)">
       <defs>
        <path id="DejaVuSans-32" d="M 1228 531 
L 3431 531 
L 3431 0 
L 469 0 
L 469 531 
Q 828 903 1448 1529 
Q 2069 2156 2228 2338 
Q 2531 2678 2651 2914 
Q 2772 3150 2772 3378 
Q 2772 3750 2511 3984 
Q 2250 4219 1831 4219 
Q 1534 4219 1204 4116 
Q 875 4013 500 3803 
L 500 4441 
Q 881 4594 1212 4672 
Q 1544 4750 1819 4750 
Q 2544 4750 2975 4387 
Q 3406 4025 3406 3419 
Q 3406 3131 3298 2873 
Q 3191 2616 2906 2266 
Q 2828 2175 2409 1742 
Q 1991 1309 1228 531 
z
" transform="scale(0.015625)"/>
       </defs>
       <use xlink:href="#DejaVuSans-32"/>
       <use xlink:href="#DejaVuSans-30" transform="translate(63.623047 0)"/>
       <use xlink:href="#DejaVuSans-30" transform="translate(127.246094 0)"/>
      </g>
     </g>
    </g>
    <g id="xtick_3">
     <g id="line2d_3">
      <g>
       <use xlink:href="#m910e42c8e1" x="208.637383" y="307.584" style="stroke: #000000; stroke-width: 0.8"/>
      </g>
     </g>
     <g id="text_3">
      <!-- 400 -->
      <g transform="translate(199.093633 322.182437) scale(0.1 -0.1)">
       <defs>
        <path id="DejaVuSans-34" d="M 2419 4116 
L 825 1625 
L 2419 1625 
L 2419 4116 
z
M 2253 4666 
L 3047 4666 
L 3047 1625 
L 3713 1625 
L 3713 1100 
L 3047 1100 
L 3047 0 
L 2419 0 
L 2419 1100 
L 313 1100 
L 313 1709 
L 2253 4666 
z
" transform="scale(0.015625)"/>
       </defs>
       <use xlink:href="#DejaVuSans-34"/>
       <use xlink:href="#DejaVuSans-30" transform="translate(63.623047 0)"/>
       <use xlink:href="#DejaVuSans-30" transform="translate(127.246094 0)"/>
      </g>
     </g>
    </g>
    <g id="xtick_4">
     <g id="line2d_4">
      <g>
       <use xlink:href="#m910e42c8e1" x="283.528858" y="307.584" style="stroke: #000000; stroke-width: 0.8"/>
      </g>
     </g>
     <g id="text_4">
      <!-- 600 -->
      <g transform="translate(273.985108 322.182437) scale(0.1 -0.1)">
       <defs>
        <path id="DejaVuSans-36" d="M 2113 2584 
Q 1688 2584 1439 2293 
Q 1191 2003 1191 1497 
Q 1191 994 1439 701 
Q 1688 409 2113 409 
Q 2538 409 2786 701 
Q 3034 994 3034 1497 
Q 3034 2003 2786 2293 
Q 2538 2584 2113 2584 
z
M 3366 4563 
L 3366 3988 
Q 3128 4100 2886 4159 
Q 2644 4219 2406 4219 
Q 1781 4219 1451 3797 
Q 1122 3375 1075 2522 
Q 1259 2794 1537 2939 
Q 1816 3084 2150 3084 
Q 2853 3084 3261 2657 
Q 3669 2231 3669 1497 
Q 3669 778 3244 343 
Q 2819 -91 2113 -91 
Q 1303 -91 875 529 
Q 447 1150 447 2328 
Q 447 3434 972 4092 
Q 1497 4750 2381 4750 
Q 2619 4750 2861 4703 
Q 3103 4656 3366 4563 
z
" transform="scale(0.015625)"/>
       </defs>
       <use xlink:href="#DejaVuSans-36"/>
       <use xlink:href="#DejaVuSans-30" transform="translate(63.623047 0)"/>
       <use xlink:href="#DejaVuSans-30" transform="translate(127.246094 0)"/>
      </g>
     </g>
    </g>
    <g id="xtick_5">
     <g id="line2d_5">
      <g>
       <use xlink:href="#m910e42c8e1" x="358.420333" y="307.584" style="stroke: #000000; stroke-width: 0.8"/>
      </g>
     </g>
     <g id="text_5">
      <!-- 800 -->
      <g transform="translate(348.876583 322.182437) scale(0.1 -0.1)">
       <defs>
        <path id="DejaVuSans-38" d="M 2034 2216 
Q 1584 2216 1326 1975 
Q 1069 1734 1069 1313 
Q 1069 891 1326 650 
Q 1584 409 2034 409 
Q 2484 409 2743 651 
Q 3003 894 3003 1313 
Q 3003 1734 2745 1975 
Q 2488 2216 2034 2216 
z
M 1403 2484 
Q 997 2584 770 2862 
Q 544 3141 544 3541 
Q 544 4100 942 4425 
Q 1341 4750 2034 4750 
Q 2731 4750 3128 4425 
Q 3525 4100 3525 3541 
Q 3525 3141 3298 2862 
Q 3072 2584 2669 2484 
Q 3125 2378 3379 2068 
Q 3634 1759 3634 1313 
Q 3634 634 3220 271 
Q 2806 -91 2034 -91 
Q 1263 -91 848 271 
Q 434 634 434 1313 
Q 434 1759 690 2068 
Q 947 2378 1403 2484 
z
M 1172 3481 
Q 1172 3119 1398 2916 
Q 1625 2713 2034 2713 
Q 2441 2713 2670 2916 
Q 2900 3119 2900 3481 
Q 2900 3844 2670 4047 
Q 2441 4250 2034 4250 
Q 1625 4250 1398 4047 
Q 1172 3844 1172 3481 
z
" transform="scale(0.015625)"/>
       </defs>
       <use xlink:href="#DejaVuSans-38"/>
       <use xlink:href="#DejaVuSans-30" transform="translate(63.623047 0)"/>
       <use xlink:href="#DejaVuSans-30" transform="translate(127.246094 0)"/>
      </g>
     </g>
    </g>
    <g id="text_6">
     <!-- Alleles -->
     <g transform="translate(219.814687 335.860562) scale(0.1 -0.1)">
      <defs>
       <path id="DejaVuSans-41" d="M 2188 4044 
L 1331 1722 
L 3047 1722 
L 2188 4044 
z
M 1831 4666 
L 2547 4666 
L 4325 0 
L 3669 0 
L 3244 1197 
L 1141 1197 
L 716 0 
L 50 0 
L 1831 4666 
z
" transform="scale(0.015625)"/>
       <path id="DejaVuSans-6c" d="M 603 4863 
L 1178 4863 
L 1178 0 
L 603 0 
L 603 4863 
z
" transform="scale(0.015625)"/>
       <path id="DejaVuSans-65" d="M 3597 1894 
L 3597 1613 
L 953 1613 
Q 991 1019 1311 708 
Q 1631 397 2203 397 
Q 2534 397 2845 478 
Q 3156 559 3463 722 
L 3463 178 
Q 3153 47 2828 -22 
Q 2503 -91 2169 -91 
Q 1331 -91 842 396 
Q 353 884 353 1716 
Q 353 2575 817 3079 
Q 1281 3584 2069 3584 
Q 2775 3584 3186 3129 
Q 3597 2675 3597 1894 
z
M 3022 2063 
Q 3016 2534 2758 2815 
Q 2500 3097 2075 3097 
Q 1594 3097 1305 2825 
Q 1016 2553 972 2059 
L 3022 2063 
z
" transform="scale(0.015625)"/>
       <path id="DejaVuSans-73" d="M 2834 3397 
L 2834 2853 
Q 2591 2978 2328 3040 
Q 2066 3103 1784 3103 
Q 1356 3103 1142 2972 
Q 928 2841 928 2578 
Q 928 2378 1081 2264 
Q 1234 2150 1697 2047 
L 1894 2003 
Q 2506 1872 2764 1633 
Q 3022 1394 3022 966 
Q 3022 478 2636 193 
Q 2250 -91 1575 -91 
Q 1294 -91 989 -36 
Q 684 19 347 128 
L 347 722 
Q 666 556 975 473 
Q 1284 391 1588 391 
Q 1994 391 2212 530 
Q 2431 669 2431 922 
Q 2431 1156 2273 1281 
Q 2116 1406 1581 1522 
L 1381 1569 
Q 847 1681 609 1914 
Q 372 2147 372 2553 
Q 372 3047 722 3315 
Q 1072 3584 1716 3584 
Q 2034 3584 2315 3537 
Q 2597 3491 2834 3397 
z
" transform="scale(0.015625)"/>
      </defs>
      <use xlink:href="#DejaVuSans-41"/>
      <use xlink:href="#DejaVuSans-6c" transform="translate(68.408203 0)"/>
      <use xlink:href="#DejaVuSans-6c" transform="translate(96.191406 0)"/>
      <use xlink:href="#DejaVuSans-65" transform="translate(123.974609 0)"/>
      <use xlink:href="#DejaVuSans-6c" transform="translate(185.498047 0)"/>
      <use xlink:href="#DejaVuSans-65" transform="translate(213.28125 0)"/>
      <use xlink:href="#DejaVuSans-73" transform="translate(274.804688 0)"/>
     </g>
    </g>
   </g>
   <g id="matplotlib.axis_2">
    <g id="ytick_1">
     <g id="line2d_6">
      <defs>
       <path id="m09221877b9" d="M 0 0 
L -3.5 0 
" style="stroke: #000000; stroke-width: 0.8"/>
      </defs>
      <g>
       <use xlink:href="#m09221877b9" x="57.6" y="307.584" style="stroke: #000000; stroke-width: 0.8"/>
      </g>
     </g>
     <g id="text_7">
      <!-- 0 -->
      <g transform="translate(44.2375 311.383219) scale(0.1 -0.1)">
       <use xlink:href="#DejaVuSans-30"/>
      </g>
     </g>
    </g>
    <g id="ytick_2">
     <g id="line2d_7">
      <g>
       <use xlink:href="#m09221877b9" x="57.6" y="223.104" style="stroke: #000000; stroke-width: 0.8"/>
      </g>
     </g>
     <g id="text_8">
      <!-- 1 -->
      <g transform="translate(44.2375 226.903219) scale(0.1 -0.1)">
       <defs>
        <path id="DejaVuSans-31" d="M 794 531 
L 1825 531 
L 1825 4091 
L 703 3866 
L 703 4441 
L 1819 4666 
L 2450 4666 
L 2450 531 
L 3481 531 
L 3481 0 
L 794 0 
L 794 531 
z
" transform="scale(0.015625)"/>
       </defs>
       <use xlink:href="#DejaVuSans-31"/>
      </g>
     </g>
    </g>
    <g id="ytick_3">
     <g id="line2d_8">
      <g>
       <use xlink:href="#m09221877b9" x="57.6" y="138.624" style="stroke: #000000; stroke-width: 0.8"/>
      </g>
     </g>
     <g id="text_9">
      <!-- 2 -->
      <g transform="translate(44.2375 142.423219) scale(0.1 -0.1)">
       <use xlink:href="#DejaVuSans-32"/>
      </g>
     </g>
    </g>
    <g id="ytick_4">
     <g id="line2d_9">
      <g>
       <use xlink:href="#m09221877b9" x="57.6" y="54.144" style="stroke: #000000; stroke-width: 0.8"/>
      </g>
     </g>
     <g id="text_10">
      <!-- 3 -->
      <g transform="translate(44.2375 57.943219) scale(0.1 -0.1)">
       <defs>
        <path id="DejaVuSans-33" d="M 2597 2516 
Q 3050 2419 3304 2112 
Q 3559 1806 3559 1356 
Q 3559 666 3084 287 
Q 2609 -91 1734 -91 
Q 1441 -91 1130 -33 
Q 819 25 488 141 
L 488 750 
Q 750 597 1062 519 
Q 1375 441 1716 441 
Q 2309 441 2620 675 
Q 2931 909 2931 1356 
Q 2931 1769 2642 2001 
Q 2353 2234 1838 2234 
L 1294 2234 
L 1294 2753 
L 1863 2753 
Q 2328 2753 2575 2939 
Q 2822 3125 2822 3475 
Q 2822 3834 2567 4026 
Q 2313 4219 1838 4219 
Q 1578 4219 1281 4162 
Q 984 4106 628 3988 
L 628 4550 
Q 988 4650 1302 4700 
Q 1616 4750 1894 4750 
Q 2613 4750 3031 4423 
Q 3450 4097 3450 3541 
Q 3450 3153 3228 2886 
Q 3006 2619 2597 2516 
z
" transform="scale(0.015625)"/>
       </defs>
       <use xlink:href="#DejaVuSans-33"/>
      </g>
     </g>
    </g>
    <g id="text_11">
     <!-- Count -->
     <g transform="translate(38.157812 189.376437) rotate(-90) scale(0.1 -0.1)">
      <defs>
       <path id="DejaVuSans-43" d="M 4122 4306 
L 4122 3641 
Q 3803 3938 3442 4084 
Q 3081 4231 2675 4231 
Q 1875 4231 1450 3742 
Q 1025 3253 1025 2328 
Q 1025 1406 1450 917 
Q 1875 428 2675 428 
Q 3081 428 3442 575 
Q 3803 722 4122 1019 
L 4122 359 
Q 3791 134 3420 21 
Q 3050 -91 2638 -91 
Q 1578 -91 968 557 
Q 359 1206 359 2328 
Q 359 3453 968 4101 
Q 1578 4750 2638 4750 
Q 3056 4750 3426 4639 
Q 3797 4528 4122 4306 
z
" transform="scale(0.015625)"/>
       <path id="DejaVuSans-6f" d="M 1959 3097 
Q 1497 3097 1228 2736 
Q 959 2375 959 1747 
Q 959 1119 1226 758 
Q 1494 397 1959 397 
Q 2419 397 2687 759 
Q 2956 1122 2956 1747 
Q 2956 2369 2687 2733 
Q 2419 3097 1959 3097 
z
M 1959 3584 
Q 2709 3584 3137 3096 
Q 3566 2609 3566 1747 
Q 3566 888 3137 398 
Q 2709 -91 1959 -91 
Q 1206 -91 779 398 
Q 353 888 353 1747 
Q 353 2609 779 3096 
Q 1206 3584 1959 3584 
z
" transform="scale(0.015625)"/>
       <path id="DejaVuSans-75" d="M 544 1381 
L 544 3500 
L 1119 3500 
L 1119 1403 
Q 1119 906 1312 657 
Q 1506 409 1894 409 
Q 2359 409 2629 706 
Q 2900 1003 2900 1516 
L 2900 3500 
L 3475 3500 
L 3475 0 
L 2900 0 
L 2900 538 
Q 2691 219 2414 64 
Q 2138 -91 1772 -91 
Q 1169 -91 856 284 
Q 544 659 544 1381 
z
M 1991 3584 
L 1991 3584 
z
" transform="scale(0.015625)"/>
       <path id="DejaVuSans-6e" d="M 3513 2113 
L 3513 0 
L 2938 0 
L 2938 2094 
Q 2938 2591 2744 2837 
Q 2550 3084 2163 3084 
Q 1697 3084 1428 2787 
Q 1159 2491 1159 1978 
L 1159 0 
L 581 0 
L 581 3500 
L 1159 3500 
L 1159 2956 
Q 1366 3272 1645 3428 
Q 1925 3584 2291 3584 
Q 2894 3584 3203 3211 
Q 3513 2838 3513 2113 
z
" transform="scale(0.015625)"/>
       <path id="DejaVuSans-74" d="M 1172 4494 
L 1172 3500 
L 2356 3500 
L 2356 3053 
L 1172 3053 
L 1172 1153 
Q 1172 725 1289 603 
Q 1406 481 1766 481 
L 2356 481 
L 2356 0 
L 1766 0 
Q 1100 0 847 248 
Q 594 497 594 1153 
L 594 3053 
L 172 3053 
L 172 3500 
L 594 3500 
L 594 4494 
L 1172 4494 
z
" transform="scale(0.015625)"/>
      </defs>
      <use xlink:href="#DejaVuSans-43"/>
      <use xlink:href="#DejaVuSans-6f" transform="translate(69.824219 0)"/>
      <use xlink:href="#DejaVuSans-75" transform="translate(131.005859 0)"/>
      <use xlink:href="#DejaVuSans-6e" transform="translate(194.384766 0)"/>
      <use xlink:href="#DejaVuSans-74" transform="translate(257.763672 0)"/>
     </g>
    </g>
   </g>
   <g id="line2d_10">
    <path d="M 73.832727 299.492275 
L 81.989877 299.162792 
L 91.778456 298.747395 
L 96.672746 298.309549 
L 99.935605 297.853994 
L 103.198465 297.225219 
L 106.461325 296.387348 
L 109.724185 295.305928 
L 112.987044 293.948801 
L 116.249904 292.286828 
L 119.512764 290.294455 
L 122.775624 287.950126 
L 126.038483 285.236559 
L 129.301343 282.140925 
L 132.564203 278.654963 
L 135.827063 274.775087 
L 139.089922 270.502515 
L 142.352782 265.843465 
L 145.615642 260.809416 
L 148.878502 255.417448 
L 152.141361 249.690608 
L 157.035651 240.538519 
L 161.929941 230.82768 
L 168.45566 217.292539 
L 181.507099 190.013621 
L 186.401389 180.391305 
L 189.664249 174.33243 
L 192.927108 168.622038 
L 196.189968 163.306338 
L 199.452828 158.423114 
L 202.715688 154.001464 
L 205.978547 150.062128 
L 209.241407 146.618365 
L 212.504267 143.67727 
L 215.767127 141.241346 
L 219.029986 139.310157 
L 220.661416 138.533274 
L 222.292846 137.881831 
L 223.924276 137.355563 
L 225.555706 136.954238 
L 227.187136 136.677662 
L 228.818566 136.525682 
L 230.449995 136.498171 
L 232.081425 136.595013 
L 233.712855 136.81607 
L 235.344285 137.161146 
L 236.975715 137.629947 
L 238.607145 138.222029 
L 240.238575 138.936749 
L 243.501434 140.730202 
L 246.764294 142.999116 
L 250.027154 145.725797 
L 253.290014 148.884794 
L 256.552873 152.442172 
L 259.815733 156.355439 
L 263.078593 160.574196 
L 267.972883 167.349213 
L 274.498602 176.888304 
L 284.287181 191.28486 
L 289.181471 198.148901 
L 294.075761 204.636625 
L 298.97005 210.695992 
L 303.86434 216.322501 
L 308.75863 221.550473 
L 313.652919 226.441203 
L 320.178639 232.568226 
L 328.335788 239.840397 
L 341.387227 251.108802 
L 351.175806 259.295828 
L 357.701526 264.460008 
L 362.595815 268.087129 
L 367.490105 271.45338 
L 372.384395 274.534762 
L 377.278684 277.332615 
L 382.172974 279.873847 
L 388.698693 282.946788 
L 396.855843 286.477457 
L 398.487273 287.162543 
L 398.487273 287.162543 
" clip-path="url(#pf3149715e2)" style="fill: none; stroke: #4682b4; stroke-width: 1.5; stroke-linecap: square"/>
   </g>
   <g id="patch_53">
    <path d="M 57.6 307.584 
L 57.6 41.472 
" style="fill: none; stroke: #000000; stroke-width: 0.8; stroke-linejoin: miter; stroke-linecap: square"/>
   </g>
   <g id="patch_54">
    <path d="M 414.72 307.584 
L 414.72 41.472 
" style="fill: none; stroke: #000000; stroke-width: 0.8; stroke-linejoin: miter; stroke-linecap: square"/>
   </g>
   <g id="patch_55">
    <path d="M 57.6 307.584 
L 414.72 307.584 
" style="fill: none; stroke: #000000; stroke-width: 0.8; stroke-linejoin: miter; stroke-linecap: square"/>
   </g>
   <g id="patch_56">
    <path d="M 57.6 41.472 
L 414.72 41.472 
" style="fill: none; stroke: #000000; stroke-width: 0.8; stroke-linejoin: miter; stroke-linecap: square"/>
   </g>
  </g>
 </g>
 <defs>
  <clipPath id="pf3149715e2">
   <rect x="57.6" y="41.472" width="357.12" height="266.112"/>
  </clipPath>
 </defs>
</svg>
