<?xml version="1.0" encoding="utf-8" standalone="no"?>
<!DOCTYPE svg PUBLIC "-//W3C//DTD SVG 1.1//EN"
  "http://www.w3.org/Graphics/SVG/1.1/DTD/svg11.dtd">
<svg xmlns:xlink="http://www.w3.org/1999/xlink" width="460.8pt" height="345.6pt" viewBox="0 0 460.8 345.6" xmlns="http://www.w3.org/2000/svg" version="1.1">
 <metadata>
  <rdf:RDF xmlns:dc="http://purl.org/dc/elements/1.1/" xmlns:cc="http://creativecommons.org/ns#" xmlns:rdf="http://www.w3.org/1999/02/22-rdf-syntax-ns#">
   <cc:Work>
    <dc:type rdf:resource="http://purl.org/dc/dcmitype/StillImage"/>
    <dc:date>2025-05-14T11:48:16.586729</dc:date>
    <dc:format>image/svg+xml</dc:format>
    <dc:creator>
     <cc:Agent>
      <dc:title>Matplotlib v3.10.1, https://matplotlib.org/</dc:title>
     </cc:Agent>
    </dc:creator>
   </cc:Work>
  </rdf:RDF>
 </metadata>
 <defs>
  <style type="text/css">*{stroke-linejoin: round; stroke-linecap: butt}</style>
 </defs>
 <g id="figure_1">
  <g id="patch_1">
   <path d="M 0 345.6 
L 460.8 345.6 
L 460.8 0 
L 0 0 
z
" style="fill: #ffffff"/>
  </g>
  <g id="axes_1">
   <g id="patch_2">
    <path d="M 57.6 307.584 
L 414.72 307.584 
L 414.72 41.472 
L 57.6 41.472 
z
" style="fill: #ffffff"/>
   </g>
   <g id="patch_3">
    <path d="M 73.832727 307.584 
L 79.243636 307.584 
L 79.243636 296.832 
L 73.832727 296.832 
z
" clip-path="url(#p186f618301)" style="fill: #4682b4; fill-opacity: 0.5; stroke: #000000; stroke-width: 0.541091; stroke-linejoin: miter"/>
   </g>
   <g id="patch_4">
    <path d="M 79.243636 307.584 
L 84.654545 307.584 
L 84.654545 302.976 
L 79.243636 302.976 
z
" clip-path="url(#p186f618301)" style="fill: #4682b4; fill-opacity: 0.5; stroke: #000000; stroke-width: 0.541091; stroke-linejoin: miter"/>
   </g>
   <g id="patch_5">
    <path d="M 84.654545 307.584 
L 90.065455 307.584 
L 90.065455 301.44 
L 84.654545 301.44 
z
" clip-path="url(#p186f618301)" style="fill: #4682b4; fill-opacity: 0.5; stroke: #000000; stroke-width: 0.541091; stroke-linejoin: miter"/>
   </g>
   <g id="patch_6">
    <path d="M 90.065455 307.584 
L 95.476364 307.584 
L 95.476364 301.44 
L 90.065455 301.44 
z
" clip-path="url(#p186f618301)" style="fill: #4682b4; fill-opacity: 0.5; stroke: #000000; stroke-width: 0.541091; stroke-linejoin: miter"/>
   </g>
   <g id="patch_7">
    <path d="M 95.476364 307.584 
L 100.887273 307.584 
L 100.887273 299.904 
L 95.476364 299.904 
z
" clip-path="url(#p186f618301)" style="fill: #4682b4; fill-opacity: 0.5; stroke: #000000; stroke-width: 0.541091; stroke-linejoin: miter"/>
   </g>
   <g id="patch_8">
    <path d="M 100.887273 307.584 
L 106.298182 307.584 
L 106.298182 295.296 
L 100.887273 295.296 
z
" clip-path="url(#p186f618301)" style="fill: #4682b4; fill-opacity: 0.5; stroke: #000000; stroke-width: 0.541091; stroke-linejoin: miter"/>
   </g>
   <g id="patch_9">
    <path d="M 106.298182 307.584 
L 111.709091 307.584 
L 111.709091 279.936 
L 106.298182 279.936 
z
" clip-path="url(#p186f618301)" style="fill: #4682b4; fill-opacity: 0.5; stroke: #000000; stroke-width: 0.541091; stroke-linejoin: miter"/>
   </g>
   <g id="patch_10">
    <path d="M 111.709091 307.584 
L 117.12 307.584 
L 117.12 290.688 
L 111.709091 290.688 
z
" clip-path="url(#p186f618301)" style="fill: #4682b4; fill-opacity: 0.5; stroke: #000000; stroke-width: 0.541091; stroke-linejoin: miter"/>
   </g>
   <g id="patch_11">
    <path d="M 117.12 307.584 
L 122.530909 307.584 
L 122.530909 272.256 
L 117.12 272.256 
z
" clip-path="url(#p186f618301)" style="fill: #4682b4; fill-opacity: 0.5; stroke: #000000; stroke-width: 0.541091; stroke-linejoin: miter"/>
   </g>
   <g id="patch_12">
    <path d="M 122.530909 307.584 
L 127.941818 307.584 
L 127.941818 279.936 
L 122.530909 279.936 
z
" clip-path="url(#p186f618301)" style="fill: #4682b4; fill-opacity: 0.5; stroke: #000000; stroke-width: 0.541091; stroke-linejoin: miter"/>
   </g>
   <g id="patch_13">
    <path d="M 127.941818 307.584 
L 133.352727 307.584 
L 133.352727 267.648 
L 127.941818 267.648 
z
" clip-path="url(#p186f618301)" style="fill: #4682b4; fill-opacity: 0.5; stroke: #000000; stroke-width: 0.541091; stroke-linejoin: miter"/>
   </g>
   <g id="patch_14">
    <path d="M 133.352727 307.584 
L 138.763636 307.584 
L 138.763636 241.536 
L 133.352727 241.536 
z
" clip-path="url(#p186f618301)" style="fill: #4682b4; fill-opacity: 0.5; stroke: #000000; stroke-width: 0.541091; stroke-linejoin: miter"/>
   </g>
   <g id="patch_15">
    <path d="M 138.763636 307.584 
L 144.174545 307.584 
L 144.174545 235.392 
L 138.763636 235.392 
z
" clip-path="url(#p186f618301)" style="fill: #4682b4; fill-opacity: 0.5; stroke: #000000; stroke-width: 0.541091; stroke-linejoin: miter"/>
   </g>
   <g id="patch_16">
    <path d="M 144.174545 307.584 
L 149.585455 307.584 
L 149.585455 244.608 
L 144.174545 244.608 
z
" clip-path="url(#p186f618301)" style="fill: #4682b4; fill-opacity: 0.5; stroke: #000000; stroke-width: 0.541091; stroke-linejoin: miter"/>
   </g>
   <g id="patch_17">
    <path d="M 149.585455 307.584 
L 154.996364 307.584 
L 154.996364 201.6 
L 149.585455 201.6 
z
" clip-path="url(#p186f618301)" style="fill: #4682b4; fill-opacity: 0.5; stroke: #000000; stroke-width: 0.541091; stroke-linejoin: miter"/>
   </g>
   <g id="patch_18">
    <path d="M 154.996364 307.584 
L 160.407273 307.584 
L 160.407273 210.816 
L 154.996364 210.816 
z
" clip-path="url(#p186f618301)" style="fill: #4682b4; fill-opacity: 0.5; stroke: #000000; stroke-width: 0.541091; stroke-linejoin: miter"/>
   </g>
   <g id="patch_19">
    <path d="M 160.407273 307.584 
L 165.818182 307.584 
L 165.818182 195.456 
L 160.407273 195.456 
z
" clip-path="url(#p186f618301)" style="fill: #4682b4; fill-opacity: 0.5; stroke: #000000; stroke-width: 0.541091; stroke-linejoin: miter"/>
   </g>
   <g id="patch_20">
    <path d="M 165.818182 307.584 
L 171.229091 307.584 
L 171.229091 177.024 
L 165.818182 177.024 
z
" clip-path="url(#p186f618301)" style="fill: #4682b4; fill-opacity: 0.5; stroke: #000000; stroke-width: 0.541091; stroke-linejoin: miter"/>
   </g>
   <g id="patch_21">
    <path d="M 171.229091 307.584 
L 176.64 307.584 
L 176.64 157.056 
L 171.229091 157.056 
z
" clip-path="url(#p186f618301)" style="fill: #4682b4; fill-opacity: 0.5; stroke: #000000; stroke-width: 0.541091; stroke-linejoin: miter"/>
   </g>
   <g id="patch_22">
    <path d="M 176.64 307.584 
L 182.050909 307.584 
L 182.050909 134.016 
L 176.64 134.016 
z
" clip-path="url(#p186f618301)" style="fill: #4682b4; fill-opacity: 0.5; stroke: #000000; stroke-width: 0.541091; stroke-linejoin: miter"/>
   </g>
   <g id="patch_23">
    <path d="M 182.050909 307.584 
L 187.461818 307.584 
L 187.461818 114.048 
L 182.050909 114.048 
z
" clip-path="url(#p186f618301)" style="fill: #4682b4; fill-opacity: 0.5; stroke: #000000; stroke-width: 0.541091; stroke-linejoin: miter"/>
   </g>
   <g id="patch_24">
    <path d="M 187.461818 307.584 
L 192.872727 307.584 
L 192.872727 130.944 
L 187.461818 130.944 
z
" clip-path="url(#p186f618301)" style="fill: #4682b4; fill-opacity: 0.5; stroke: #000000; stroke-width: 0.541091; stroke-linejoin: miter"/>
   </g>
   <g id="patch_25">
    <path d="M 192.872727 307.584 
L 198.283636 307.584 
L 198.283636 89.472 
L 192.872727 89.472 
z
" clip-path="url(#p186f618301)" style="fill: #4682b4; fill-opacity: 0.5; stroke: #000000; stroke-width: 0.541091; stroke-linejoin: miter"/>
   </g>
   <g id="patch_26">
    <path d="M 198.283636 307.584 
L 203.694545 307.584 
L 203.694545 61.824 
L 198.283636 61.824 
z
" clip-path="url(#p186f618301)" style="fill: #4682b4; fill-opacity: 0.5; stroke: #000000; stroke-width: 0.541091; stroke-linejoin: miter"/>
   </g>
   <g id="patch_27">
    <path d="M 203.694545 307.584 
L 209.105455 307.584 
L 209.105455 66.432 
L 203.694545 66.432 
z
" clip-path="url(#p186f618301)" style="fill: #4682b4; fill-opacity: 0.5; stroke: #000000; stroke-width: 0.541091; stroke-linejoin: miter"/>
   </g>
   <g id="patch_28">
    <path d="M 209.105455 307.584 
L 214.516364 307.584 
L 214.516364 112.512 
L 209.105455 112.512 
z
" clip-path="url(#p186f618301)" style="fill: #4682b4; fill-opacity: 0.5; stroke: #000000; stroke-width: 0.541091; stroke-linejoin: miter"/>
   </g>
   <g id="patch_29">
    <path d="M 214.516364 307.584 
L 219.927273 307.584 
L 219.927273 69.504 
L 214.516364 69.504 
z
" clip-path="url(#p186f618301)" style="fill: #4682b4; fill-opacity: 0.5; stroke: #000000; stroke-width: 0.541091; stroke-linejoin: miter"/>
   </g>
   <g id="patch_30">
    <path d="M 219.927273 307.584 
L 225.338182 307.584 
L 225.338182 63.36 
L 219.927273 63.36 
z
" clip-path="url(#p186f618301)" style="fill: #4682b4; fill-opacity: 0.5; stroke: #000000; stroke-width: 0.541091; stroke-linejoin: miter"/>
   </g>
   <g id="patch_31">
    <path d="M 225.338182 307.584 
L 230.749091 307.584 
L 230.749091 87.936 
L 225.338182 87.936 
z
" clip-path="url(#p186f618301)" style="fill: #4682b4; fill-opacity: 0.5; stroke: #000000; stroke-width: 0.541091; stroke-linejoin: miter"/>
   </g>
   <g id="patch_32">
    <path d="M 230.749091 307.584 
L 236.16 307.584 
L 236.16 77.184 
L 230.749091 77.184 
z
" clip-path="url(#p186f618301)" style="fill: #4682b4; fill-opacity: 0.5; stroke: #000000; stroke-width: 0.541091; stroke-linejoin: miter"/>
   </g>
   <g id="patch_33">
    <path d="M 236.16 307.584 
L 241.570909 307.584 
L 241.570909 54.144 
L 236.16 54.144 
z
" clip-path="url(#p186f618301)" style="fill: #4682b4; fill-opacity: 0.5; stroke: #000000; stroke-width: 0.541091; stroke-linejoin: miter"/>
   </g>
   <g id="patch_34">
    <path d="M 241.570909 307.584 
L 246.981818 307.584 
L 246.981818 112.512 
L 241.570909 112.512 
z
" clip-path="url(#p186f618301)" style="fill: #4682b4; fill-opacity: 0.5; stroke: #000000; stroke-width: 0.541091; stroke-linejoin: miter"/>
   </g>
   <g id="patch_35">
    <path d="M 246.981818 307.584 
L 252.392727 307.584 
L 252.392727 69.504 
L 246.981818 69.504 
z
" clip-path="url(#p186f618301)" style="fill: #4682b4; fill-opacity: 0.5; stroke: #000000; stroke-width: 0.541091; stroke-linejoin: miter"/>
   </g>
   <g id="patch_36">
    <path d="M 252.392727 307.584 
L 257.803636 307.584 
L 257.803636 138.624 
L 252.392727 138.624 
z
" clip-path="url(#p186f618301)" style="fill: #4682b4; fill-opacity: 0.5; stroke: #000000; stroke-width: 0.541091; stroke-linejoin: miter"/>
   </g>
   <g id="patch_37">
    <path d="M 257.803636 307.584 
L 263.214545 307.584 
L 263.214545 121.728 
L 257.803636 121.728 
z
" clip-path="url(#p186f618301)" style="fill: #4682b4; fill-opacity: 0.5; stroke: #000000; stroke-width: 0.541091; stroke-linejoin: miter"/>
   </g>
   <g id="patch_38">
    <path d="M 263.214545 307.584 
L 268.625455 307.584 
L 268.625455 144.768 
L 263.214545 144.768 
z
" clip-path="url(#p186f618301)" style="fill: #4682b4; fill-opacity: 0.5; stroke: #000000; stroke-width: 0.541091; stroke-linejoin: miter"/>
   </g>
   <g id="patch_39">
    <path d="M 268.625455 307.584 
L 274.036364 307.584 
L 274.036364 144.768 
L 268.625455 144.768 
z
" clip-path="url(#p186f618301)" style="fill: #4682b4; fill-opacity: 0.5; stroke: #000000; stroke-width: 0.541091; stroke-linejoin: miter"/>
   </g>
   <g id="patch_40">
    <path d="M 274.036364 307.584 
L 279.447273 307.584 
L 279.447273 169.344 
L 274.036364 169.344 
z
" clip-path="url(#p186f618301)" style="fill: #4682b4; fill-opacity: 0.5; stroke: #000000; stroke-width: 0.541091; stroke-linejoin: miter"/>
   </g>
   <g id="patch_41">
    <path d="M 279.447273 307.584 
L 284.858182 307.584 
L 284.858182 218.496 
L 279.447273 218.496 
z
" clip-path="url(#p186f618301)" style="fill: #4682b4; fill-opacity: 0.5; stroke: #000000; stroke-width: 0.541091; stroke-linejoin: miter"/>
   </g>
   <g id="patch_42">
    <path d="M 284.858182 307.584 
L 290.269091 307.584 
L 290.269091 198.528 
L 284.858182 198.528 
z
" clip-path="url(#p186f618301)" style="fill: #4682b4; fill-opacity: 0.5; stroke: #000000; stroke-width: 0.541091; stroke-linejoin: miter"/>
   </g>
   <g id="patch_43">
    <path d="M 290.269091 307.584 
L 295.68 307.584 
L 295.68 232.32 
L 290.269091 232.32 
z
" clip-path="url(#p186f618301)" style="fill: #4682b4; fill-opacity: 0.5; stroke: #000000; stroke-width: 0.541091; stroke-linejoin: miter"/>
   </g>
   <g id="patch_44">
    <path d="M 295.68 307.584 
L 301.090909 307.584 
L 301.090909 220.032 
L 295.68 220.032 
z
" clip-path="url(#p186f618301)" style="fill: #4682b4; fill-opacity: 0.5; stroke: #000000; stroke-width: 0.541091; stroke-linejoin: miter"/>
   </g>
   <g id="patch_45">
    <path d="M 301.090909 307.584 
L 306.501818 307.584 
L 306.501818 255.36 
L 301.090909 255.36 
z
" clip-path="url(#p186f618301)" style="fill: #4682b4; fill-opacity: 0.5; stroke: #000000; stroke-width: 0.541091; stroke-linejoin: miter"/>
   </g>
   <g id="patch_46">
    <path d="M 306.501818 307.584 
L 311.912727 307.584 
L 311.912727 261.504 
L 306.501818 261.504 
z
" clip-path="url(#p186f618301)" style="fill: #4682b4; fill-opacity: 0.5; stroke: #000000; stroke-width: 0.541091; stroke-linejoin: miter"/>
   </g>
   <g id="patch_47">
    <path d="M 311.912727 307.584 
L 317.323636 307.584 
L 317.323636 267.648 
L 311.912727 267.648 
z
" clip-path="url(#p186f618301)" style="fill: #4682b4; fill-opacity: 0.5; stroke: #000000; stroke-width: 0.541091; stroke-linejoin: miter"/>
   </g>
   <g id="patch_48">
    <path d="M 317.323636 307.584 
L 322.734545 307.584 
L 322.734545 266.112 
L 317.323636 266.112 
z
" clip-path="url(#p186f618301)" style="fill: #4682b4; fill-opacity: 0.5; stroke: #000000; stroke-width: 0.541091; stroke-linejoin: miter"/>
   </g>
   <g id="patch_49">
    <path d="M 322.734545 307.584 
L 328.145455 307.584 
L 328.145455 272.256 
L 322.734545 272.256 
z
" clip-path="url(#p186f618301)" style="fill: #4682b4; fill-opacity: 0.5; stroke: #000000; stroke-width: 0.541091; stroke-linejoin: miter"/>
   </g>
   <g id="patch_50">
    <path d="M 328.145455 307.584 
L 333.556364 307.584 
L 333.556364 287.616 
L 328.145455 287.616 
z
" clip-path="url(#p186f618301)" style="fill: #4682b4; fill-opacity: 0.5; stroke: #000000; stroke-width: 0.541091; stroke-linejoin: miter"/>
   </g>
   <g id="patch_51">
    <path d="M 333.556364 307.584 
L 338.967273 307.584 
L 338.967273 284.544 
L 333.556364 284.544 
z
" clip-path="url(#p186f618301)" style="fill: #4682b4; fill-opacity: 0.5; stroke: #000000; stroke-width: 0.541091; stroke-linejoin: miter"/>
   </g>
   <g id="patch_52">
    <path d="M 338.967273 307.584 
L 344.378182 307.584 
L 344.378182 299.904 
L 338.967273 299.904 
z
" clip-path="url(#p186f618301)" style="fill: #4682b4; fill-opacity: 0.5; stroke: #000000; stroke-width: 0.541091; stroke-linejoin: miter"/>
   </g>
   <g id="patch_53">
    <path d="M 344.378182 307.584 
L 349.789091 307.584 
L 349.789091 298.368 
L 344.378182 298.368 
z
" clip-path="url(#p186f618301)" style="fill: #4682b4; fill-opacity: 0.5; stroke: #000000; stroke-width: 0.541091; stroke-linejoin: miter"/>
   </g>
   <g id="patch_54">
    <path d="M 349.789091 307.584 
L 355.2 307.584 
L 355.2 302.976 
L 349.789091 302.976 
z
" clip-path="url(#p186f618301)" style="fill: #4682b4; fill-opacity: 0.5; stroke: #000000; stroke-width: 0.541091; stroke-linejoin: miter"/>
   </g>
   <g id="patch_55">
    <path d="M 355.2 307.584 
L 360.610909 307.584 
L 360.610909 304.512 
L 355.2 304.512 
z
" clip-path="url(#p186f618301)" style="fill: #4682b4; fill-opacity: 0.5; stroke: #000000; stroke-width: 0.541091; stroke-linejoin: miter"/>
   </g>
   <g id="patch_56">
    <path d="M 360.610909 307.584 
L 366.021818 307.584 
L 366.021818 306.048 
L 360.610909 306.048 
z
" clip-path="url(#p186f618301)" style="fill: #4682b4; fill-opacity: 0.5; stroke: #000000; stroke-width: 0.541091; stroke-linejoin: miter"/>
   </g>
   <g id="patch_57">
    <path d="M 366.021818 307.584 
L 371.432727 307.584 
L 371.432727 306.048 
L 366.021818 306.048 
z
" clip-path="url(#p186f618301)" style="fill: #4682b4; fill-opacity: 0.5; stroke: #000000; stroke-width: 0.541091; stroke-linejoin: miter"/>
   </g>
   <g id="patch_58">
    <path d="M 371.432727 307.584 
L 376.843636 307.584 
L 376.843636 301.44 
L 371.432727 301.44 
z
" clip-path="url(#p186f618301)" style="fill: #4682b4; fill-opacity: 0.5; stroke: #000000; stroke-width: 0.541091; stroke-linejoin: miter"/>
   </g>
   <g id="patch_59">
    <path d="M 376.843636 307.584 
L 382.254545 307.584 
L 382.254545 307.584 
L 376.843636 307.584 
z
" clip-path="url(#p186f618301)" style="fill: #4682b4; fill-opacity: 0.5; stroke: #000000; stroke-width: 0.541091; stroke-linejoin: miter"/>
   </g>
   <g id="patch_60">
    <path d="M 382.254545 307.584 
L 387.665455 307.584 
L 387.665455 307.584 
L 382.254545 307.584 
z
" clip-path="url(#p186f618301)" style="fill: #4682b4; fill-opacity: 0.5; stroke: #000000; stroke-width: 0.541091; stroke-linejoin: miter"/>
   </g>
   <g id="patch_61">
    <path d="M 387.665455 307.584 
L 393.076364 307.584 
L 393.076364 306.048 
L 387.665455 306.048 
z
" clip-path="url(#p186f618301)" style="fill: #4682b4; fill-opacity: 0.5; stroke: #000000; stroke-width: 0.541091; stroke-linejoin: miter"/>
   </g>
   <g id="patch_62">
    <path d="M 393.076364 307.584 
L 398.487273 307.584 
L 398.487273 306.048 
L 393.076364 306.048 
z
" clip-path="url(#p186f618301)" style="fill: #4682b4; fill-opacity: 0.5; stroke: #000000; stroke-width: 0.541091; stroke-linejoin: miter"/>
   </g>
   <g id="matplotlib.axis_1">
    <g id="xtick_1">
     <g id="line2d_1">
      <defs>
       <path id="mc3acbbef0d" d="M 0 0 
L 0 3.5 
" style="stroke: #000000; stroke-width: 0.8"/>
      </defs>
      <g>
       <use xlink:href="#mc3acbbef0d" x="72.941635" y="307.584" style="stroke: #000000; stroke-width: 0.8"/>
      </g>
     </g>
     <g id="text_1">
      <!-- 0 -->
      <g transform="translate(69.760385 322.182437) scale(0.1 -0.1)">
       <defs>
        <path id="DejaVuSans-30" d="M 2034 4250 
Q 1547 4250 1301 3770 
Q 1056 3291 1056 2328 
Q 1056 1369 1301 889 
Q 1547 409 2034 409 
Q 2525 409 2770 889 
Q 3016 1369 3016 2328 
Q 3016 3291 2770 3770 
Q 2525 4250 2034 4250 
z
M 2034 4750 
Q 2819 4750 3233 4129 
Q 3647 3509 3647 2328 
Q 3647 1150 3233 529 
Q 2819 -91 2034 -91 
Q 1250 -91 836 529 
Q 422 1150 422 2328 
Q 422 3509 836 4129 
Q 1250 4750 2034 4750 
z
" transform="scale(0.015625)"/>
       </defs>
       <use xlink:href="#DejaVuSans-30"/>
      </g>
     </g>
    </g>
    <g id="xtick_2">
     <g id="line2d_2">
      <g>
       <use xlink:href="#mc3acbbef0d" x="132.347773" y="307.584" style="stroke: #000000; stroke-width: 0.8"/>
      </g>
     </g>
     <g id="text_2">
      <!-- 200 -->
      <g transform="translate(122.804023 322.182437) scale(0.1 -0.1)">
       <defs>
        <path id="DejaVuSans-32" d="M 1228 531 
L 3431 531 
L 3431 0 
L 469 0 
L 469 531 
Q 828 903 1448 1529 
Q 2069 2156 2228 2338 
Q 2531 2678 2651 2914 
Q 2772 3150 2772 3378 
Q 2772 3750 2511 3984 
Q 2250 4219 1831 4219 
Q 1534 4219 1204 4116 
Q 875 4013 500 3803 
L 500 4441 
Q 881 4594 1212 4672 
Q 1544 4750 1819 4750 
Q 2544 4750 2975 4387 
Q 3406 4025 3406 3419 
Q 3406 3131 3298 2873 
Q 3191 2616 2906 2266 
Q 2828 2175 2409 1742 
Q 1991 1309 1228 531 
z
" transform="scale(0.015625)"/>
       </defs>
       <use xlink:href="#DejaVuSans-32"/>
       <use xlink:href="#DejaVuSans-30" transform="translate(63.623047 0)"/>
       <use xlink:href="#DejaVuSans-30" transform="translate(127.246094 0)"/>
      </g>
     </g>
    </g>
    <g id="xtick_3">
     <g id="line2d_3">
      <g>
       <use xlink:href="#mc3acbbef0d" x="191.753912" y="307.584" style="stroke: #000000; stroke-width: 0.8"/>
      </g>
     </g>
     <g id="text_3">
      <!-- 400 -->
      <g transform="translate(182.210162 322.182437) scale(0.1 -0.1)">
       <defs>
        <path id="DejaVuSans-34" d="M 2419 4116 
L 825 1625 
L 2419 1625 
L 2419 4116 
z
M 2253 4666 
L 3047 4666 
L 3047 1625 
L 3713 1625 
L 3713 1100 
L 3047 1100 
L 3047 0 
L 2419 0 
L 2419 1100 
L 313 1100 
L 313 1709 
L 2253 4666 
z
" transform="scale(0.015625)"/>
       </defs>
       <use xlink:href="#DejaVuSans-34"/>
       <use xlink:href="#DejaVuSans-30" transform="translate(63.623047 0)"/>
       <use xlink:href="#DejaVuSans-30" transform="translate(127.246094 0)"/>
      </g>
     </g>
    </g>
    <g id="xtick_4">
     <g id="line2d_4">
      <g>
       <use xlink:href="#mc3acbbef0d" x="251.16005" y="307.584" style="stroke: #000000; stroke-width: 0.8"/>
      </g>
     </g>
     <g id="text_4">
      <!-- 600 -->
      <g transform="translate(241.6163 322.182437) scale(0.1 -0.1)">
       <defs>
        <path id="DejaVuSans-36" d="M 2113 2584 
Q 1688 2584 1439 2293 
Q 1191 2003 1191 1497 
Q 1191 994 1439 701 
Q 1688 409 2113 409 
Q 2538 409 2786 701 
Q 3034 994 3034 1497 
Q 3034 2003 2786 2293 
Q 2538 2584 2113 2584 
z
M 3366 4563 
L 3366 3988 
Q 3128 4100 2886 4159 
Q 2644 4219 2406 4219 
Q 1781 4219 1451 3797 
Q 1122 3375 1075 2522 
Q 1259 2794 1537 2939 
Q 1816 3084 2150 3084 
Q 2853 3084 3261 2657 
Q 3669 2231 3669 1497 
Q 3669 778 3244 343 
Q 2819 -91 2113 -91 
Q 1303 -91 875 529 
Q 447 1150 447 2328 
Q 447 3434 972 4092 
Q 1497 4750 2381 4750 
Q 2619 4750 2861 4703 
Q 3103 4656 3366 4563 
z
" transform="scale(0.015625)"/>
       </defs>
       <use xlink:href="#DejaVuSans-36"/>
       <use xlink:href="#DejaVuSans-30" transform="translate(63.623047 0)"/>
       <use xlink:href="#DejaVuSans-30" transform="translate(127.246094 0)"/>
      </g>
     </g>
    </g>
    <g id="xtick_5">
     <g id="line2d_5">
      <g>
       <use xlink:href="#mc3acbbef0d" x="310.566188" y="307.584" style="stroke: #000000; stroke-width: 0.8"/>
      </g>
     </g>
     <g id="text_5">
      <!-- 800 -->
      <g transform="translate(301.022438 322.182437) scale(0.1 -0.1)">
       <defs>
        <path id="DejaVuSans-38" d="M 2034 2216 
Q 1584 2216 1326 1975 
Q 1069 1734 1069 1313 
Q 1069 891 1326 650 
Q 1584 409 2034 409 
Q 2484 409 2743 651 
Q 3003 894 3003 1313 
Q 3003 1734 2745 1975 
Q 2488 2216 2034 2216 
z
M 1403 2484 
Q 997 2584 770 2862 
Q 544 3141 544 3541 
Q 544 4100 942 4425 
Q 1341 4750 2034 4750 
Q 2731 4750 3128 4425 
Q 3525 4100 3525 3541 
Q 3525 3141 3298 2862 
Q 3072 2584 2669 2484 
Q 3125 2378 3379 2068 
Q 3634 1759 3634 1313 
Q 3634 634 3220 271 
Q 2806 -91 2034 -91 
Q 1263 -91 848 271 
Q 434 634 434 1313 
Q 434 1759 690 2068 
Q 947 2378 1403 2484 
z
M 1172 3481 
Q 1172 3119 1398 2916 
Q 1625 2713 2034 2713 
Q 2441 2713 2670 2916 
Q 2900 3119 2900 3481 
Q 2900 3844 2670 4047 
Q 2441 4250 2034 4250 
Q 1625 4250 1398 4047 
Q 1172 3844 1172 3481 
z
" transform="scale(0.015625)"/>
       </defs>
       <use xlink:href="#DejaVuSans-38"/>
       <use xlink:href="#DejaVuSans-30" transform="translate(63.623047 0)"/>
       <use xlink:href="#DejaVuSans-30" transform="translate(127.246094 0)"/>
      </g>
     </g>
    </g>
    <g id="xtick_6">
     <g id="line2d_6">
      <g>
       <use xlink:href="#mc3acbbef0d" x="369.972326" y="307.584" style="stroke: #000000; stroke-width: 0.8"/>
      </g>
     </g>
     <g id="text_6">
      <!-- 1000 -->
      <g transform="translate(357.247326 322.182437) scale(0.1 -0.1)">
       <defs>
        <path id="DejaVuSans-31" d="M 794 531 
L 1825 531 
L 1825 4091 
L 703 3866 
L 703 4441 
L 1819 4666 
L 2450 4666 
L 2450 531 
L 3481 531 
L 3481 0 
L 794 0 
L 794 531 
z
" transform="scale(0.015625)"/>
       </defs>
       <use xlink:href="#DejaVuSans-31"/>
       <use xlink:href="#DejaVuSans-30" transform="translate(63.623047 0)"/>
       <use xlink:href="#DejaVuSans-30" transform="translate(127.246094 0)"/>
       <use xlink:href="#DejaVuSans-30" transform="translate(190.869141 0)"/>
      </g>
     </g>
    </g>
    <g id="text_7">
     <!-- Pairwise Relatedness -->
     <g transform="translate(183.668594 335.860562) scale(0.1 -0.1)">
      <defs>
       <path id="DejaVuSans-50" d="M 1259 4147 
L 1259 2394 
L 2053 2394 
Q 2494 2394 2734 2622 
Q 2975 2850 2975 3272 
Q 2975 3691 2734 3919 
Q 2494 4147 2053 4147 
L 1259 4147 
z
M 628 4666 
L 2053 4666 
Q 2838 4666 3239 4311 
Q 3641 3956 3641 3272 
Q 3641 2581 3239 2228 
Q 2838 1875 2053 1875 
L 1259 1875 
L 1259 0 
L 628 0 
L 628 4666 
z
" transform="scale(0.015625)"/>
       <path id="DejaVuSans-61" d="M 2194 1759 
Q 1497 1759 1228 1600 
Q 959 1441 959 1056 
Q 959 750 1161 570 
Q 1363 391 1709 391 
Q 2188 391 2477 730 
Q 2766 1069 2766 1631 
L 2766 1759 
L 2194 1759 
z
M 3341 1997 
L 3341 0 
L 2766 0 
L 2766 531 
Q 2569 213 2275 61 
Q 1981 -91 1556 -91 
Q 1019 -91 701 211 
Q 384 513 384 1019 
Q 384 1609 779 1909 
Q 1175 2209 1959 2209 
L 2766 2209 
L 2766 2266 
Q 2766 2663 2505 2880 
Q 2244 3097 1772 3097 
Q 1472 3097 1187 3025 
Q 903 2953 641 2809 
L 641 3341 
Q 956 3463 1253 3523 
Q 1550 3584 1831 3584 
Q 2591 3584 2966 3190 
Q 3341 2797 3341 1997 
z
" transform="scale(0.015625)"/>
       <path id="DejaVuSans-69" d="M 603 3500 
L 1178 3500 
L 1178 0 
L 603 0 
L 603 3500 
z
M 603 4863 
L 1178 4863 
L 1178 4134 
L 603 4134 
L 603 4863 
z
" transform="scale(0.015625)"/>
       <path id="DejaVuSans-72" d="M 2631 2963 
Q 2534 3019 2420 3045 
Q 2306 3072 2169 3072 
Q 1681 3072 1420 2755 
Q 1159 2438 1159 1844 
L 1159 0 
L 581 0 
L 581 3500 
L 1159 3500 
L 1159 2956 
Q 1341 3275 1631 3429 
Q 1922 3584 2338 3584 
Q 2397 3584 2469 3576 
Q 2541 3569 2628 3553 
L 2631 2963 
z
" transform="scale(0.015625)"/>
       <path id="DejaVuSans-77" d="M 269 3500 
L 844 3500 
L 1563 769 
L 2278 3500 
L 2956 3500 
L 3675 769 
L 4391 3500 
L 4966 3500 
L 4050 0 
L 3372 0 
L 2619 2869 
L 1863 0 
L 1184 0 
L 269 3500 
z
" transform="scale(0.015625)"/>
       <path id="DejaVuSans-73" d="M 2834 3397 
L 2834 2853 
Q 2591 2978 2328 3040 
Q 2066 3103 1784 3103 
Q 1356 3103 1142 2972 
Q 928 2841 928 2578 
Q 928 2378 1081 2264 
Q 1234 2150 1697 2047 
L 1894 2003 
Q 2506 1872 2764 1633 
Q 3022 1394 3022 966 
Q 3022 478 2636 193 
Q 2250 -91 1575 -91 
Q 1294 -91 989 -36 
Q 684 19 347 128 
L 347 722 
Q 666 556 975 473 
Q 1284 391 1588 391 
Q 1994 391 2212 530 
Q 2431 669 2431 922 
Q 2431 1156 2273 1281 
Q 2116 1406 1581 1522 
L 1381 1569 
Q 847 1681 609 1914 
Q 372 2147 372 2553 
Q 372 3047 722 3315 
Q 1072 3584 1716 3584 
Q 2034 3584 2315 3537 
Q 2597 3491 2834 3397 
z
" transform="scale(0.015625)"/>
       <path id="DejaVuSans-65" d="M 3597 1894 
L 3597 1613 
L 953 1613 
Q 991 1019 1311 708 
Q 1631 397 2203 397 
Q 2534 397 2845 478 
Q 3156 559 3463 722 
L 3463 178 
Q 3153 47 2828 -22 
Q 2503 -91 2169 -91 
Q 1331 -91 842 396 
Q 353 884 353 1716 
Q 353 2575 817 3079 
Q 1281 3584 2069 3584 
Q 2775 3584 3186 3129 
Q 3597 2675 3597 1894 
z
M 3022 2063 
Q 3016 2534 2758 2815 
Q 2500 3097 2075 3097 
Q 1594 3097 1305 2825 
Q 1016 2553 972 2059 
L 3022 2063 
z
" transform="scale(0.015625)"/>
       <path id="DejaVuSans-20" transform="scale(0.015625)"/>
       <path id="DejaVuSans-52" d="M 2841 2188 
Q 3044 2119 3236 1894 
Q 3428 1669 3622 1275 
L 4263 0 
L 3584 0 
L 2988 1197 
Q 2756 1666 2539 1819 
Q 2322 1972 1947 1972 
L 1259 1972 
L 1259 0 
L 628 0 
L 628 4666 
L 2053 4666 
Q 2853 4666 3247 4331 
Q 3641 3997 3641 3322 
Q 3641 2881 3436 2590 
Q 3231 2300 2841 2188 
z
M 1259 4147 
L 1259 2491 
L 2053 2491 
Q 2509 2491 2742 2702 
Q 2975 2913 2975 3322 
Q 2975 3731 2742 3939 
Q 2509 4147 2053 4147 
L 1259 4147 
z
" transform="scale(0.015625)"/>
       <path id="DejaVuSans-6c" d="M 603 4863 
L 1178 4863 
L 1178 0 
L 603 0 
L 603 4863 
z
" transform="scale(0.015625)"/>
       <path id="DejaVuSans-74" d="M 1172 4494 
L 1172 3500 
L 2356 3500 
L 2356 3053 
L 1172 3053 
L 1172 1153 
Q 1172 725 1289 603 
Q 1406 481 1766 481 
L 2356 481 
L 2356 0 
L 1766 0 
Q 1100 0 847 248 
Q 594 497 594 1153 
L 594 3053 
L 172 3053 
L 172 3500 
L 594 3500 
L 594 4494 
L 1172 4494 
z
" transform="scale(0.015625)"/>
       <path id="DejaVuSans-64" d="M 2906 2969 
L 2906 4863 
L 3481 4863 
L 3481 0 
L 2906 0 
L 2906 525 
Q 2725 213 2448 61 
Q 2172 -91 1784 -91 
Q 1150 -91 751 415 
Q 353 922 353 1747 
Q 353 2572 751 3078 
Q 1150 3584 1784 3584 
Q 2172 3584 2448 3432 
Q 2725 3281 2906 2969 
z
M 947 1747 
Q 947 1113 1208 752 
Q 1469 391 1925 391 
Q 2381 391 2643 752 
Q 2906 1113 2906 1747 
Q 2906 2381 2643 2742 
Q 2381 3103 1925 3103 
Q 1469 3103 1208 2742 
Q 947 2381 947 1747 
z
" transform="scale(0.015625)"/>
       <path id="DejaVuSans-6e" d="M 3513 2113 
L 3513 0 
L 2938 0 
L 2938 2094 
Q 2938 2591 2744 2837 
Q 2550 3084 2163 3084 
Q 1697 3084 1428 2787 
Q 1159 2491 1159 1978 
L 1159 0 
L 581 0 
L 581 3500 
L 1159 3500 
L 1159 2956 
Q 1366 3272 1645 3428 
Q 1925 3584 2291 3584 
Q 2894 3584 3203 3211 
Q 3513 2838 3513 2113 
z
" transform="scale(0.015625)"/>
      </defs>
      <use xlink:href="#DejaVuSans-50"/>
      <use xlink:href="#DejaVuSans-61" transform="translate(55.802734 0)"/>
      <use xlink:href="#DejaVuSans-69" transform="translate(117.082031 0)"/>
      <use xlink:href="#DejaVuSans-72" transform="translate(144.865234 0)"/>
      <use xlink:href="#DejaVuSans-77" transform="translate(185.978516 0)"/>
      <use xlink:href="#DejaVuSans-69" transform="translate(267.765625 0)"/>
      <use xlink:href="#DejaVuSans-73" transform="translate(295.548828 0)"/>
      <use xlink:href="#DejaVuSans-65" transform="translate(347.648438 0)"/>
      <use xlink:href="#DejaVuSans-20" transform="translate(409.171875 0)"/>
      <use xlink:href="#DejaVuSans-52" transform="translate(440.958984 0)"/>
      <use xlink:href="#DejaVuSans-65" transform="translate(505.941406 0)"/>
      <use xlink:href="#DejaVuSans-6c" transform="translate(567.464844 0)"/>
      <use xlink:href="#DejaVuSans-61" transform="translate(595.248047 0)"/>
      <use xlink:href="#DejaVuSans-74" transform="translate(656.527344 0)"/>
      <use xlink:href="#DejaVuSans-65" transform="translate(695.736328 0)"/>
      <use xlink:href="#DejaVuSans-64" transform="translate(757.259766 0)"/>
      <use xlink:href="#DejaVuSans-6e" transform="translate(820.736328 0)"/>
      <use xlink:href="#DejaVuSans-65" transform="translate(884.115234 0)"/>
      <use xlink:href="#DejaVuSans-73" transform="translate(945.638672 0)"/>
      <use xlink:href="#DejaVuSans-73" transform="translate(997.738281 0)"/>
     </g>
    </g>
   </g>
   <g id="matplotlib.axis_2">
    <g id="ytick_1">
     <g id="line2d_7">
      <defs>
       <path id="me4a73a5c04" d="M 0 0 
L -3.5 0 
" style="stroke: #000000; stroke-width: 0.8"/>
      </defs>
      <g>
       <use xlink:href="#me4a73a5c04" x="57.6" y="307.584" style="stroke: #000000; stroke-width: 0.8"/>
      </g>
     </g>
     <g id="text_8">
      <!-- 0 -->
      <g transform="translate(44.2375 311.383219) scale(0.1 -0.1)">
       <use xlink:href="#DejaVuSans-30"/>
      </g>
     </g>
    </g>
    <g id="ytick_2">
     <g id="line2d_8">
      <g>
       <use xlink:href="#me4a73a5c04" x="57.6" y="276.864" style="stroke: #000000; stroke-width: 0.8"/>
      </g>
     </g>
     <g id="text_9">
      <!-- 20 -->
      <g transform="translate(37.875 280.663219) scale(0.1 -0.1)">
       <use xlink:href="#DejaVuSans-32"/>
       <use xlink:href="#DejaVuSans-30" transform="translate(63.623047 0)"/>
      </g>
     </g>
    </g>
    <g id="ytick_3">
     <g id="line2d_9">
      <g>
       <use xlink:href="#me4a73a5c04" x="57.6" y="246.144" style="stroke: #000000; stroke-width: 0.8"/>
      </g>
     </g>
     <g id="text_10">
      <!-- 40 -->
      <g transform="translate(37.875 249.943219) scale(0.1 -0.1)">
       <use xlink:href="#DejaVuSans-34"/>
       <use xlink:href="#DejaVuSans-30" transform="translate(63.623047 0)"/>
      </g>
     </g>
    </g>
    <g id="ytick_4">
     <g id="line2d_10">
      <g>
       <use xlink:href="#me4a73a5c04" x="57.6" y="215.424" style="stroke: #000000; stroke-width: 0.8"/>
      </g>
     </g>
     <g id="text_11">
      <!-- 60 -->
      <g transform="translate(37.875 219.223219) scale(0.1 -0.1)">
       <use xlink:href="#DejaVuSans-36"/>
       <use xlink:href="#DejaVuSans-30" transform="translate(63.623047 0)"/>
      </g>
     </g>
    </g>
    <g id="ytick_5">
     <g id="line2d_11">
      <g>
       <use xlink:href="#me4a73a5c04" x="57.6" y="184.704" style="stroke: #000000; stroke-width: 0.8"/>
      </g>
     </g>
     <g id="text_12">
      <!-- 80 -->
      <g transform="translate(37.875 188.503219) scale(0.1 -0.1)">
       <use xlink:href="#DejaVuSans-38"/>
       <use xlink:href="#DejaVuSans-30" transform="translate(63.623047 0)"/>
      </g>
     </g>
    </g>
    <g id="ytick_6">
     <g id="line2d_12">
      <g>
       <use xlink:href="#me4a73a5c04" x="57.6" y="153.984" style="stroke: #000000; stroke-width: 0.8"/>
      </g>
     </g>
     <g id="text_13">
      <!-- 100 -->
      <g transform="translate(31.5125 157.783219) scale(0.1 -0.1)">
       <use xlink:href="#DejaVuSans-31"/>
       <use xlink:href="#DejaVuSans-30" transform="translate(63.623047 0)"/>
       <use xlink:href="#DejaVuSans-30" transform="translate(127.246094 0)"/>
      </g>
     </g>
    </g>
    <g id="ytick_7">
     <g id="line2d_13">
      <g>
       <use xlink:href="#me4a73a5c04" x="57.6" y="123.264" style="stroke: #000000; stroke-width: 0.8"/>
      </g>
     </g>
     <g id="text_14">
      <!-- 120 -->
      <g transform="translate(31.5125 127.063219) scale(0.1 -0.1)">
       <use xlink:href="#DejaVuSans-31"/>
       <use xlink:href="#DejaVuSans-32" transform="translate(63.623047 0)"/>
       <use xlink:href="#DejaVuSans-30" transform="translate(127.246094 0)"/>
      </g>
     </g>
    </g>
    <g id="ytick_8">
     <g id="line2d_14">
      <g>
       <use xlink:href="#me4a73a5c04" x="57.6" y="92.544" style="stroke: #000000; stroke-width: 0.8"/>
      </g>
     </g>
     <g id="text_15">
      <!-- 140 -->
      <g transform="translate(31.5125 96.343219) scale(0.1 -0.1)">
       <use xlink:href="#DejaVuSans-31"/>
       <use xlink:href="#DejaVuSans-34" transform="translate(63.623047 0)"/>
       <use xlink:href="#DejaVuSans-30" transform="translate(127.246094 0)"/>
      </g>
     </g>
    </g>
    <g id="ytick_9">
     <g id="line2d_15">
      <g>
       <use xlink:href="#me4a73a5c04" x="57.6" y="61.824" style="stroke: #000000; stroke-width: 0.8"/>
      </g>
     </g>
     <g id="text_16">
      <!-- 160 -->
      <g transform="translate(31.5125 65.623219) scale(0.1 -0.1)">
       <use xlink:href="#DejaVuSans-31"/>
       <use xlink:href="#DejaVuSans-36" transform="translate(63.623047 0)"/>
       <use xlink:href="#DejaVuSans-30" transform="translate(127.246094 0)"/>
      </g>
     </g>
    </g>
    <g id="text_17">
     <!-- Count -->
     <g transform="translate(25.432812 189.376437) rotate(-90) scale(0.1 -0.1)">
      <defs>
       <path id="DejaVuSans-43" d="M 4122 4306 
L 4122 3641 
Q 3803 3938 3442 4084 
Q 3081 4231 2675 4231 
Q 1875 4231 1450 3742 
Q 1025 3253 1025 2328 
Q 1025 1406 1450 917 
Q 1875 428 2675 428 
Q 3081 428 3442 575 
Q 3803 722 4122 1019 
L 4122 359 
Q 3791 134 3420 21 
Q 3050 -91 2638 -91 
Q 1578 -91 968 557 
Q 359 1206 359 2328 
Q 359 3453 968 4101 
Q 1578 4750 2638 4750 
Q 3056 4750 3426 4639 
Q 3797 4528 4122 4306 
z
" transform="scale(0.015625)"/>
       <path id="DejaVuSans-6f" d="M 1959 3097 
Q 1497 3097 1228 2736 
Q 959 2375 959 1747 
Q 959 1119 1226 758 
Q 1494 397 1959 397 
Q 2419 397 2687 759 
Q 2956 1122 2956 1747 
Q 2956 2369 2687 2733 
Q 2419 3097 1959 3097 
z
M 1959 3584 
Q 2709 3584 3137 3096 
Q 3566 2609 3566 1747 
Q 3566 888 3137 398 
Q 2709 -91 1959 -91 
Q 1206 -91 779 398 
Q 353 888 353 1747 
Q 353 2609 779 3096 
Q 1206 3584 1959 3584 
z
" transform="scale(0.015625)"/>
       <path id="DejaVuSans-75" d="M 544 1381 
L 544 3500 
L 1119 3500 
L 1119 1403 
Q 1119 906 1312 657 
Q 1506 409 1894 409 
Q 2359 409 2629 706 
Q 2900 1003 2900 1516 
L 2900 3500 
L 3475 3500 
L 3475 0 
L 2900 0 
L 2900 538 
Q 2691 219 2414 64 
Q 2138 -91 1772 -91 
Q 1169 -91 856 284 
Q 544 659 544 1381 
z
M 1991 3584 
L 1991 3584 
z
" transform="scale(0.015625)"/>
      </defs>
      <use xlink:href="#DejaVuSans-43"/>
      <use xlink:href="#DejaVuSans-6f" transform="translate(69.824219 0)"/>
      <use xlink:href="#DejaVuSans-75" transform="translate(131.005859 0)"/>
      <use xlink:href="#DejaVuSans-6e" transform="translate(194.384766 0)"/>
      <use xlink:href="#DejaVuSans-74" transform="translate(257.763672 0)"/>
     </g>
    </g>
   </g>
   <g id="line2d_16">
    <path d="M 73.832727 303.746733 
L 78.727017 302.586006 
L 86.884166 300.847532 
L 90.147026 299.901384 
L 93.409886 298.615955 
L 96.672746 296.913977 
L 99.935605 294.79042 
L 103.198465 292.316603 
L 108.092755 288.221458 
L 114.618474 282.49138 
L 117.881334 279.380436 
L 121.144194 275.813749 
L 122.775624 273.777877 
L 124.407053 271.541272 
L 126.038483 269.093511 
L 129.301343 263.591971 
L 132.564203 257.449864 
L 139.089922 244.316016 
L 145.615642 230.744669 
L 148.878502 223.579925 
L 153.772791 212.142567 
L 158.667081 199.983699 
L 163.56137 187.196652 
L 166.82423 178.223305 
L 170.08709 168.795077 
L 174.98138 153.888638 
L 181.507099 133.770628 
L 184.769959 124.22921 
L 188.032819 115.287415 
L 191.295678 107.087413 
L 194.558538 99.816079 
L 196.189968 96.598845 
L 197.821398 93.69369 
L 199.452828 91.114931 
L 201.084258 88.86398 
L 202.715688 86.927802 
L 204.347117 85.279861 
L 205.978547 83.883411 
L 207.609977 82.696404 
L 210.872837 80.788175 
L 214.135697 79.298124 
L 217.398556 78.108918 
L 220.661416 77.214298 
L 223.924276 76.661624 
L 225.555706 76.539223 
L 227.187136 76.541427 
L 228.818566 76.692067 
L 230.449995 77.02097 
L 232.081425 77.562411 
L 233.712855 78.352164 
L 235.344285 79.423668 
L 236.975715 80.804044 
L 238.607145 82.510746 
L 240.238575 84.549477 
L 241.870005 86.913703 
L 243.501434 89.585752 
L 245.132864 92.539166 
L 248.395724 99.159235 
L 251.658584 106.506404 
L 254.921444 114.357717 
L 259.815733 126.810453 
L 264.710023 140.031875 
L 267.972883 149.35859 
L 272.867172 164.159043 
L 281.024322 189.434456 
L 284.287181 198.820952 
L 287.550041 207.493448 
L 290.812901 215.540918 
L 295.70719 226.934055 
L 302.23291 241.507374 
L 305.49577 248.309092 
L 308.75863 254.50775 
L 312.021489 259.978702 
L 315.284349 264.738759 
L 318.547209 268.920478 
L 321.810069 272.71003 
L 328.335788 279.80938 
L 338.124367 290.303819 
L 341.387227 293.478478 
L 344.650087 296.261139 
L 347.912947 298.583757 
L 351.175806 300.453478 
L 354.438666 301.919493 
L 357.701526 303.035824 
L 360.964386 303.850473 
L 364.227245 304.4199 
L 369.121535 304.989942 
L 385.435834 306.521759 
L 391.961553 306.762859 
L 398.487273 306.913377 
L 398.487273 306.913377 
" clip-path="url(#p186f618301)" style="fill: none; stroke: #4682b4; stroke-width: 1.5; stroke-linecap: square"/>
   </g>
   <g id="patch_63">
    <path d="M 57.6 307.584 
L 57.6 41.472 
" style="fill: none; stroke: #000000; stroke-width: 0.8; stroke-linejoin: miter; stroke-linecap: square"/>
   </g>
   <g id="patch_64">
    <path d="M 414.72 307.584 
L 414.72 41.472 
" style="fill: none; stroke: #000000; stroke-width: 0.8; stroke-linejoin: miter; stroke-linecap: square"/>
   </g>
   <g id="patch_65">
    <path d="M 57.6 307.584 
L 414.72 307.584 
" style="fill: none; stroke: #000000; stroke-width: 0.8; stroke-linejoin: miter; stroke-linecap: square"/>
   </g>
   <g id="patch_66">
    <path d="M 57.6 41.472 
L 414.72 41.472 
" style="fill: none; stroke: #000000; stroke-width: 0.8; stroke-linejoin: miter; stroke-linecap: square"/>
   </g>
  </g>
 </g>
 <defs>
  <clipPath id="p186f618301">
   <rect x="57.6" y="41.472" width="357.12" height="266.112"/>
  </clipPath>
 </defs>
</svg>
