<?xml version="1.0" encoding="utf-8" standalone="no"?>
<!DOCTYPE svg PUBLIC "-//W3C//DTD SVG 1.1//EN"
  "http://www.w3.org/Graphics/SVG/1.1/DTD/svg11.dtd">
<svg xmlns:xlink="http://www.w3.org/1999/xlink" width="460.8pt" height="345.6pt" viewBox="0 0 460.8 345.6" xmlns="http://www.w3.org/2000/svg" version="1.1">
 <metadata>
  <rdf:RDF xmlns:dc="http://purl.org/dc/elements/1.1/" xmlns:cc="http://creativecommons.org/ns#" xmlns:rdf="http://www.w3.org/1999/02/22-rdf-syntax-ns#">
   <cc:Work>
    <dc:type rdf:resource="http://purl.org/dc/dcmitype/StillImage"/>
    <dc:date>2025-05-14T11:49:20.738707</dc:date>
    <dc:format>image/svg+xml</dc:format>
    <dc:creator>
     <cc:Agent>
      <dc:title>Matplotlib v3.10.1, https://matplotlib.org/</dc:title>
     </cc:Agent>
    </dc:creator>
   </cc:Work>
  </rdf:RDF>
 </metadata>
 <defs>
  <style type="text/css">*{stroke-linejoin: round; stroke-linecap: butt}</style>
 </defs>
 <g id="figure_1">
  <g id="patch_1">
   <path d="M 0 345.6 
L 460.8 345.6 
L 460.8 0 
L 0 0 
z
" style="fill: #ffffff"/>
  </g>
  <g id="axes_1">
   <g id="patch_2">
    <path d="M 57.6 307.584 
L 414.72 307.584 
L 414.72 41.472 
L 57.6 41.472 
z
" style="fill: #ffffff"/>
   </g>
   <g id="patch_3">
    <path d="M 73.832727 307.584 
L 81.047273 307.584 
L 81.047273 223.104 
L 73.832727 223.104 
z
" clip-path="url(#pc2d24032df)" style="fill: #4682b4; fill-opacity: 0.5; stroke: #000000; stroke-width: 0.721455; stroke-linejoin: miter"/>
   </g>
   <g id="patch_4">
    <path d="M 81.047273 307.584 
L 88.261818 307.584 
L 88.261818 307.584 
L 81.047273 307.584 
z
" clip-path="url(#pc2d24032df)" style="fill: #4682b4; fill-opacity: 0.5; stroke: #000000; stroke-width: 0.721455; stroke-linejoin: miter"/>
   </g>
   <g id="patch_5">
    <path d="M 88.261818 307.584 
L 95.476364 307.584 
L 95.476364 307.584 
L 88.261818 307.584 
z
" clip-path="url(#pc2d24032df)" style="fill: #4682b4; fill-opacity: 0.5; stroke: #000000; stroke-width: 0.721455; stroke-linejoin: miter"/>
   </g>
   <g id="patch_6">
    <path d="M 95.476364 307.584 
L 102.690909 307.584 
L 102.690909 307.584 
L 95.476364 307.584 
z
" clip-path="url(#pc2d24032df)" style="fill: #4682b4; fill-opacity: 0.5; stroke: #000000; stroke-width: 0.721455; stroke-linejoin: miter"/>
   </g>
   <g id="patch_7">
    <path d="M 102.690909 307.584 
L 109.905455 307.584 
L 109.905455 307.584 
L 102.690909 307.584 
z
" clip-path="url(#pc2d24032df)" style="fill: #4682b4; fill-opacity: 0.5; stroke: #000000; stroke-width: 0.721455; stroke-linejoin: miter"/>
   </g>
   <g id="patch_8">
    <path d="M 109.905455 307.584 
L 117.12 307.584 
L 117.12 307.584 
L 109.905455 307.584 
z
" clip-path="url(#pc2d24032df)" style="fill: #4682b4; fill-opacity: 0.5; stroke: #000000; stroke-width: 0.721455; stroke-linejoin: miter"/>
   </g>
   <g id="patch_9">
    <path d="M 117.12 307.584 
L 124.334545 307.584 
L 124.334545 223.104 
L 117.12 223.104 
z
" clip-path="url(#pc2d24032df)" style="fill: #4682b4; fill-opacity: 0.5; stroke: #000000; stroke-width: 0.721455; stroke-linejoin: miter"/>
   </g>
   <g id="patch_10">
    <path d="M 124.334545 307.584 
L 131.549091 307.584 
L 131.549091 307.584 
L 124.334545 307.584 
z
" clip-path="url(#pc2d24032df)" style="fill: #4682b4; fill-opacity: 0.5; stroke: #000000; stroke-width: 0.721455; stroke-linejoin: miter"/>
   </g>
   <g id="patch_11">
    <path d="M 131.549091 307.584 
L 138.763636 307.584 
L 138.763636 223.104 
L 131.549091 223.104 
z
" clip-path="url(#pc2d24032df)" style="fill: #4682b4; fill-opacity: 0.5; stroke: #000000; stroke-width: 0.721455; stroke-linejoin: miter"/>
   </g>
   <g id="patch_12">
    <path d="M 138.763636 307.584 
L 145.978182 307.584 
L 145.978182 307.584 
L 138.763636 307.584 
z
" clip-path="url(#pc2d24032df)" style="fill: #4682b4; fill-opacity: 0.5; stroke: #000000; stroke-width: 0.721455; stroke-linejoin: miter"/>
   </g>
   <g id="patch_13">
    <path d="M 145.978182 307.584 
L 153.192727 307.584 
L 153.192727 307.584 
L 145.978182 307.584 
z
" clip-path="url(#pc2d24032df)" style="fill: #4682b4; fill-opacity: 0.5; stroke: #000000; stroke-width: 0.721455; stroke-linejoin: miter"/>
   </g>
   <g id="patch_14">
    <path d="M 153.192727 307.584 
L 160.407273 307.584 
L 160.407273 223.104 
L 153.192727 223.104 
z
" clip-path="url(#pc2d24032df)" style="fill: #4682b4; fill-opacity: 0.5; stroke: #000000; stroke-width: 0.721455; stroke-linejoin: miter"/>
   </g>
   <g id="patch_15">
    <path d="M 160.407273 307.584 
L 167.621818 307.584 
L 167.621818 223.104 
L 160.407273 223.104 
z
" clip-path="url(#pc2d24032df)" style="fill: #4682b4; fill-opacity: 0.5; stroke: #000000; stroke-width: 0.721455; stroke-linejoin: miter"/>
   </g>
   <g id="patch_16">
    <path d="M 167.621818 307.584 
L 174.836364 307.584 
L 174.836364 307.584 
L 167.621818 307.584 
z
" clip-path="url(#pc2d24032df)" style="fill: #4682b4; fill-opacity: 0.5; stroke: #000000; stroke-width: 0.721455; stroke-linejoin: miter"/>
   </g>
   <g id="patch_17">
    <path d="M 174.836364 307.584 
L 182.050909 307.584 
L 182.050909 138.624 
L 174.836364 138.624 
z
" clip-path="url(#pc2d24032df)" style="fill: #4682b4; fill-opacity: 0.5; stroke: #000000; stroke-width: 0.721455; stroke-linejoin: miter"/>
   </g>
   <g id="patch_18">
    <path d="M 182.050909 307.584 
L 189.265455 307.584 
L 189.265455 138.624 
L 182.050909 138.624 
z
" clip-path="url(#pc2d24032df)" style="fill: #4682b4; fill-opacity: 0.5; stroke: #000000; stroke-width: 0.721455; stroke-linejoin: miter"/>
   </g>
   <g id="patch_19">
    <path d="M 189.265455 307.584 
L 196.48 307.584 
L 196.48 223.104 
L 189.265455 223.104 
z
" clip-path="url(#pc2d24032df)" style="fill: #4682b4; fill-opacity: 0.5; stroke: #000000; stroke-width: 0.721455; stroke-linejoin: miter"/>
   </g>
   <g id="patch_20">
    <path d="M 196.48 307.584 
L 203.694545 307.584 
L 203.694545 307.584 
L 196.48 307.584 
z
" clip-path="url(#pc2d24032df)" style="fill: #4682b4; fill-opacity: 0.5; stroke: #000000; stroke-width: 0.721455; stroke-linejoin: miter"/>
   </g>
   <g id="patch_21">
    <path d="M 203.694545 307.584 
L 210.909091 307.584 
L 210.909091 223.104 
L 203.694545 223.104 
z
" clip-path="url(#pc2d24032df)" style="fill: #4682b4; fill-opacity: 0.5; stroke: #000000; stroke-width: 0.721455; stroke-linejoin: miter"/>
   </g>
   <g id="patch_22">
    <path d="M 210.909091 307.584 
L 218.123636 307.584 
L 218.123636 138.624 
L 210.909091 138.624 
z
" clip-path="url(#pc2d24032df)" style="fill: #4682b4; fill-opacity: 0.5; stroke: #000000; stroke-width: 0.721455; stroke-linejoin: miter"/>
   </g>
   <g id="patch_23">
    <path d="M 218.123636 307.584 
L 225.338182 307.584 
L 225.338182 54.144 
L 218.123636 54.144 
z
" clip-path="url(#pc2d24032df)" style="fill: #4682b4; fill-opacity: 0.5; stroke: #000000; stroke-width: 0.721455; stroke-linejoin: miter"/>
   </g>
   <g id="patch_24">
    <path d="M 225.338182 307.584 
L 232.552727 307.584 
L 232.552727 223.104 
L 225.338182 223.104 
z
" clip-path="url(#pc2d24032df)" style="fill: #4682b4; fill-opacity: 0.5; stroke: #000000; stroke-width: 0.721455; stroke-linejoin: miter"/>
   </g>
   <g id="patch_25">
    <path d="M 232.552727 307.584 
L 239.767273 307.584 
L 239.767273 138.624 
L 232.552727 138.624 
z
" clip-path="url(#pc2d24032df)" style="fill: #4682b4; fill-opacity: 0.5; stroke: #000000; stroke-width: 0.721455; stroke-linejoin: miter"/>
   </g>
   <g id="patch_26">
    <path d="M 239.767273 307.584 
L 246.981818 307.584 
L 246.981818 54.144 
L 239.767273 54.144 
z
" clip-path="url(#pc2d24032df)" style="fill: #4682b4; fill-opacity: 0.5; stroke: #000000; stroke-width: 0.721455; stroke-linejoin: miter"/>
   </g>
   <g id="patch_27">
    <path d="M 246.981818 307.584 
L 254.196364 307.584 
L 254.196364 223.104 
L 246.981818 223.104 
z
" clip-path="url(#pc2d24032df)" style="fill: #4682b4; fill-opacity: 0.5; stroke: #000000; stroke-width: 0.721455; stroke-linejoin: miter"/>
   </g>
   <g id="patch_28">
    <path d="M 254.196364 307.584 
L 261.410909 307.584 
L 261.410909 138.624 
L 254.196364 138.624 
z
" clip-path="url(#pc2d24032df)" style="fill: #4682b4; fill-opacity: 0.5; stroke: #000000; stroke-width: 0.721455; stroke-linejoin: miter"/>
   </g>
   <g id="patch_29">
    <path d="M 261.410909 307.584 
L 268.625455 307.584 
L 268.625455 54.144 
L 261.410909 54.144 
z
" clip-path="url(#pc2d24032df)" style="fill: #4682b4; fill-opacity: 0.5; stroke: #000000; stroke-width: 0.721455; stroke-linejoin: miter"/>
   </g>
   <g id="patch_30">
    <path d="M 268.625455 307.584 
L 275.84 307.584 
L 275.84 138.624 
L 268.625455 138.624 
z
" clip-path="url(#pc2d24032df)" style="fill: #4682b4; fill-opacity: 0.5; stroke: #000000; stroke-width: 0.721455; stroke-linejoin: miter"/>
   </g>
   <g id="patch_31">
    <path d="M 275.84 307.584 
L 283.054545 307.584 
L 283.054545 307.584 
L 275.84 307.584 
z
" clip-path="url(#pc2d24032df)" style="fill: #4682b4; fill-opacity: 0.5; stroke: #000000; stroke-width: 0.721455; stroke-linejoin: miter"/>
   </g>
   <g id="patch_32">
    <path d="M 283.054545 307.584 
L 290.269091 307.584 
L 290.269091 307.584 
L 283.054545 307.584 
z
" clip-path="url(#pc2d24032df)" style="fill: #4682b4; fill-opacity: 0.5; stroke: #000000; stroke-width: 0.721455; stroke-linejoin: miter"/>
   </g>
   <g id="patch_33">
    <path d="M 290.269091 307.584 
L 297.483636 307.584 
L 297.483636 138.624 
L 290.269091 138.624 
z
" clip-path="url(#pc2d24032df)" style="fill: #4682b4; fill-opacity: 0.5; stroke: #000000; stroke-width: 0.721455; stroke-linejoin: miter"/>
   </g>
   <g id="patch_34">
    <path d="M 297.483636 307.584 
L 304.698182 307.584 
L 304.698182 54.144 
L 297.483636 54.144 
z
" clip-path="url(#pc2d24032df)" style="fill: #4682b4; fill-opacity: 0.5; stroke: #000000; stroke-width: 0.721455; stroke-linejoin: miter"/>
   </g>
   <g id="patch_35">
    <path d="M 304.698182 307.584 
L 311.912727 307.584 
L 311.912727 223.104 
L 304.698182 223.104 
z
" clip-path="url(#pc2d24032df)" style="fill: #4682b4; fill-opacity: 0.5; stroke: #000000; stroke-width: 0.721455; stroke-linejoin: miter"/>
   </g>
   <g id="patch_36">
    <path d="M 311.912727 307.584 
L 319.127273 307.584 
L 319.127273 138.624 
L 311.912727 138.624 
z
" clip-path="url(#pc2d24032df)" style="fill: #4682b4; fill-opacity: 0.5; stroke: #000000; stroke-width: 0.721455; stroke-linejoin: miter"/>
   </g>
   <g id="patch_37">
    <path d="M 319.127273 307.584 
L 326.341818 307.584 
L 326.341818 138.624 
L 319.127273 138.624 
z
" clip-path="url(#pc2d24032df)" style="fill: #4682b4; fill-opacity: 0.5; stroke: #000000; stroke-width: 0.721455; stroke-linejoin: miter"/>
   </g>
   <g id="patch_38">
    <path d="M 326.341818 307.584 
L 333.556364 307.584 
L 333.556364 307.584 
L 326.341818 307.584 
z
" clip-path="url(#pc2d24032df)" style="fill: #4682b4; fill-opacity: 0.5; stroke: #000000; stroke-width: 0.721455; stroke-linejoin: miter"/>
   </g>
   <g id="patch_39">
    <path d="M 333.556364 307.584 
L 340.770909 307.584 
L 340.770909 223.104 
L 333.556364 223.104 
z
" clip-path="url(#pc2d24032df)" style="fill: #4682b4; fill-opacity: 0.5; stroke: #000000; stroke-width: 0.721455; stroke-linejoin: miter"/>
   </g>
   <g id="patch_40">
    <path d="M 340.770909 307.584 
L 347.985455 307.584 
L 347.985455 307.584 
L 340.770909 307.584 
z
" clip-path="url(#pc2d24032df)" style="fill: #4682b4; fill-opacity: 0.5; stroke: #000000; stroke-width: 0.721455; stroke-linejoin: miter"/>
   </g>
   <g id="patch_41">
    <path d="M 347.985455 307.584 
L 355.2 307.584 
L 355.2 307.584 
L 347.985455 307.584 
z
" clip-path="url(#pc2d24032df)" style="fill: #4682b4; fill-opacity: 0.5; stroke: #000000; stroke-width: 0.721455; stroke-linejoin: miter"/>
   </g>
   <g id="patch_42">
    <path d="M 355.2 307.584 
L 362.414545 307.584 
L 362.414545 223.104 
L 355.2 223.104 
z
" clip-path="url(#pc2d24032df)" style="fill: #4682b4; fill-opacity: 0.5; stroke: #000000; stroke-width: 0.721455; stroke-linejoin: miter"/>
   </g>
   <g id="patch_43">
    <path d="M 362.414545 307.584 
L 369.629091 307.584 
L 369.629091 223.104 
L 362.414545 223.104 
z
" clip-path="url(#pc2d24032df)" style="fill: #4682b4; fill-opacity: 0.5; stroke: #000000; stroke-width: 0.721455; stroke-linejoin: miter"/>
   </g>
   <g id="patch_44">
    <path d="M 369.629091 307.584 
L 376.843636 307.584 
L 376.843636 307.584 
L 369.629091 307.584 
z
" clip-path="url(#pc2d24032df)" style="fill: #4682b4; fill-opacity: 0.5; stroke: #000000; stroke-width: 0.721455; stroke-linejoin: miter"/>
   </g>
   <g id="patch_45">
    <path d="M 376.843636 307.584 
L 384.058182 307.584 
L 384.058182 307.584 
L 376.843636 307.584 
z
" clip-path="url(#pc2d24032df)" style="fill: #4682b4; fill-opacity: 0.5; stroke: #000000; stroke-width: 0.721455; stroke-linejoin: miter"/>
   </g>
   <g id="patch_46">
    <path d="M 384.058182 307.584 
L 391.272727 307.584 
L 391.272727 307.584 
L 384.058182 307.584 
z
" clip-path="url(#pc2d24032df)" style="fill: #4682b4; fill-opacity: 0.5; stroke: #000000; stroke-width: 0.721455; stroke-linejoin: miter"/>
   </g>
   <g id="patch_47">
    <path d="M 391.272727 307.584 
L 398.487273 307.584 
L 398.487273 138.624 
L 391.272727 138.624 
z
" clip-path="url(#pc2d24032df)" style="fill: #4682b4; fill-opacity: 0.5; stroke: #000000; stroke-width: 0.721455; stroke-linejoin: miter"/>
   </g>
   <g id="matplotlib.axis_1">
    <g id="xtick_1">
     <g id="line2d_1">
      <defs>
       <path id="m5dc30f3b28" d="M 0 0 
L 0 3.5 
" style="stroke: #000000; stroke-width: 0.8"/>
      </defs>
      <g>
       <use xlink:href="#m5dc30f3b28" x="73.832727" y="307.584" style="stroke: #000000; stroke-width: 0.8"/>
      </g>
     </g>
     <g id="text_1">
      <!-- 0 -->
      <g transform="translate(70.651477 322.182437) scale(0.1 -0.1)">
       <defs>
        <path id="DejaVuSans-30" d="M 2034 4250 
Q 1547 4250 1301 3770 
Q 1056 3291 1056 2328 
Q 1056 1369 1301 889 
Q 1547 409 2034 409 
Q 2525 409 2770 889 
Q 3016 1369 3016 2328 
Q 3016 3291 2770 3770 
Q 2525 4250 2034 4250 
z
M 2034 4750 
Q 2819 4750 3233 4129 
Q 3647 3509 3647 2328 
Q 3647 1150 3233 529 
Q 2819 -91 2034 -91 
Q 1250 -91 836 529 
Q 422 1150 422 2328 
Q 422 3509 836 4129 
Q 1250 4750 2034 4750 
z
" transform="scale(0.015625)"/>
       </defs>
       <use xlink:href="#DejaVuSans-30"/>
      </g>
     </g>
    </g>
    <g id="xtick_2">
     <g id="line2d_2">
      <g>
       <use xlink:href="#m5dc30f3b28" x="145.107051" y="307.584" style="stroke: #000000; stroke-width: 0.8"/>
      </g>
     </g>
     <g id="text_2">
      <!-- 200 -->
      <g transform="translate(135.563301 322.182437) scale(0.1 -0.1)">
       <defs>
        <path id="DejaVuSans-32" d="M 1228 531 
L 3431 531 
L 3431 0 
L 469 0 
L 469 531 
Q 828 903 1448 1529 
Q 2069 2156 2228 2338 
Q 2531 2678 2651 2914 
Q 2772 3150 2772 3378 
Q 2772 3750 2511 3984 
Q 2250 4219 1831 4219 
Q 1534 4219 1204 4116 
Q 875 4013 500 3803 
L 500 4441 
Q 881 4594 1212 4672 
Q 1544 4750 1819 4750 
Q 2544 4750 2975 4387 
Q 3406 4025 3406 3419 
Q 3406 3131 3298 2873 
Q 3191 2616 2906 2266 
Q 2828 2175 2409 1742 
Q 1991 1309 1228 531 
z
" transform="scale(0.015625)"/>
       </defs>
       <use xlink:href="#DejaVuSans-32"/>
       <use xlink:href="#DejaVuSans-30" transform="translate(63.623047 0)"/>
       <use xlink:href="#DejaVuSans-30" transform="translate(127.246094 0)"/>
      </g>
     </g>
    </g>
    <g id="xtick_3">
     <g id="line2d_3">
      <g>
       <use xlink:href="#m5dc30f3b28" x="216.381375" y="307.584" style="stroke: #000000; stroke-width: 0.8"/>
      </g>
     </g>
     <g id="text_3">
      <!-- 400 -->
      <g transform="translate(206.837625 322.182437) scale(0.1 -0.1)">
       <defs>
        <path id="DejaVuSans-34" d="M 2419 4116 
L 825 1625 
L 2419 1625 
L 2419 4116 
z
M 2253 4666 
L 3047 4666 
L 3047 1625 
L 3713 1625 
L 3713 1100 
L 3047 1100 
L 3047 0 
L 2419 0 
L 2419 1100 
L 313 1100 
L 313 1709 
L 2253 4666 
z
" transform="scale(0.015625)"/>
       </defs>
       <use xlink:href="#DejaVuSans-34"/>
       <use xlink:href="#DejaVuSans-30" transform="translate(63.623047 0)"/>
       <use xlink:href="#DejaVuSans-30" transform="translate(127.246094 0)"/>
      </g>
     </g>
    </g>
    <g id="xtick_4">
     <g id="line2d_4">
      <g>
       <use xlink:href="#m5dc30f3b28" x="287.655699" y="307.584" style="stroke: #000000; stroke-width: 0.8"/>
      </g>
     </g>
     <g id="text_4">
      <!-- 600 -->
      <g transform="translate(278.111949 322.182437) scale(0.1 -0.1)">
       <defs>
        <path id="DejaVuSans-36" d="M 2113 2584 
Q 1688 2584 1439 2293 
Q 1191 2003 1191 1497 
Q 1191 994 1439 701 
Q 1688 409 2113 409 
Q 2538 409 2786 701 
Q 3034 994 3034 1497 
Q 3034 2003 2786 2293 
Q 2538 2584 2113 2584 
z
M 3366 4563 
L 3366 3988 
Q 3128 4100 2886 4159 
Q 2644 4219 2406 4219 
Q 1781 4219 1451 3797 
Q 1122 3375 1075 2522 
Q 1259 2794 1537 2939 
Q 1816 3084 2150 3084 
Q 2853 3084 3261 2657 
Q 3669 2231 3669 1497 
Q 3669 778 3244 343 
Q 2819 -91 2113 -91 
Q 1303 -91 875 529 
Q 447 1150 447 2328 
Q 447 3434 972 4092 
Q 1497 4750 2381 4750 
Q 2619 4750 2861 4703 
Q 3103 4656 3366 4563 
z
" transform="scale(0.015625)"/>
       </defs>
       <use xlink:href="#DejaVuSans-36"/>
       <use xlink:href="#DejaVuSans-30" transform="translate(63.623047 0)"/>
       <use xlink:href="#DejaVuSans-30" transform="translate(127.246094 0)"/>
      </g>
     </g>
    </g>
    <g id="xtick_5">
     <g id="line2d_5">
      <g>
       <use xlink:href="#m5dc30f3b28" x="358.930023" y="307.584" style="stroke: #000000; stroke-width: 0.8"/>
      </g>
     </g>
     <g id="text_5">
      <!-- 800 -->
      <g transform="translate(349.386273 322.182437) scale(0.1 -0.1)">
       <defs>
        <path id="DejaVuSans-38" d="M 2034 2216 
Q 1584 2216 1326 1975 
Q 1069 1734 1069 1313 
Q 1069 891 1326 650 
Q 1584 409 2034 409 
Q 2484 409 2743 651 
Q 3003 894 3003 1313 
Q 3003 1734 2745 1975 
Q 2488 2216 2034 2216 
z
M 1403 2484 
Q 997 2584 770 2862 
Q 544 3141 544 3541 
Q 544 4100 942 4425 
Q 1341 4750 2034 4750 
Q 2731 4750 3128 4425 
Q 3525 4100 3525 3541 
Q 3525 3141 3298 2862 
Q 3072 2584 2669 2484 
Q 3125 2378 3379 2068 
Q 3634 1759 3634 1313 
Q 3634 634 3220 271 
Q 2806 -91 2034 -91 
Q 1263 -91 848 271 
Q 434 634 434 1313 
Q 434 1759 690 2068 
Q 947 2378 1403 2484 
z
M 1172 3481 
Q 1172 3119 1398 2916 
Q 1625 2713 2034 2713 
Q 2441 2713 2670 2916 
Q 2900 3119 2900 3481 
Q 2900 3844 2670 4047 
Q 2441 4250 2034 4250 
Q 1625 4250 1398 4047 
Q 1172 3844 1172 3481 
z
" transform="scale(0.015625)"/>
       </defs>
       <use xlink:href="#DejaVuSans-38"/>
       <use xlink:href="#DejaVuSans-30" transform="translate(63.623047 0)"/>
       <use xlink:href="#DejaVuSans-30" transform="translate(127.246094 0)"/>
      </g>
     </g>
    </g>
    <g id="text_6">
     <!-- Alleles -->
     <g transform="translate(219.814687 335.860562) scale(0.1 -0.1)">
      <defs>
       <path id="DejaVuSans-41" d="M 2188 4044 
L 1331 1722 
L 3047 1722 
L 2188 4044 
z
M 1831 4666 
L 2547 4666 
L 4325 0 
L 3669 0 
L 3244 1197 
L 1141 1197 
L 716 0 
L 50 0 
L 1831 4666 
z
" transform="scale(0.015625)"/>
       <path id="DejaVuSans-6c" d="M 603 4863 
L 1178 4863 
L 1178 0 
L 603 0 
L 603 4863 
z
" transform="scale(0.015625)"/>
       <path id="DejaVuSans-65" d="M 3597 1894 
L 3597 1613 
L 953 1613 
Q 991 1019 1311 708 
Q 1631 397 2203 397 
Q 2534 397 2845 478 
Q 3156 559 3463 722 
L 3463 178 
Q 3153 47 2828 -22 
Q 2503 -91 2169 -91 
Q 1331 -91 842 396 
Q 353 884 353 1716 
Q 353 2575 817 3079 
Q 1281 3584 2069 3584 
Q 2775 3584 3186 3129 
Q 3597 2675 3597 1894 
z
M 3022 2063 
Q 3016 2534 2758 2815 
Q 2500 3097 2075 3097 
Q 1594 3097 1305 2825 
Q 1016 2553 972 2059 
L 3022 2063 
z
" transform="scale(0.015625)"/>
       <path id="DejaVuSans-73" d="M 2834 3397 
L 2834 2853 
Q 2591 2978 2328 3040 
Q 2066 3103 1784 3103 
Q 1356 3103 1142 2972 
Q 928 2841 928 2578 
Q 928 2378 1081 2264 
Q 1234 2150 1697 2047 
L 1894 2003 
Q 2506 1872 2764 1633 
Q 3022 1394 3022 966 
Q 3022 478 2636 193 
Q 2250 -91 1575 -91 
Q 1294 -91 989 -36 
Q 684 19 347 128 
L 347 722 
Q 666 556 975 473 
Q 1284 391 1588 391 
Q 1994 391 2212 530 
Q 2431 669 2431 922 
Q 2431 1156 2273 1281 
Q 2116 1406 1581 1522 
L 1381 1569 
Q 847 1681 609 1914 
Q 372 2147 372 2553 
Q 372 3047 722 3315 
Q 1072 3584 1716 3584 
Q 2034 3584 2315 3537 
Q 2597 3491 2834 3397 
z
" transform="scale(0.015625)"/>
      </defs>
      <use xlink:href="#DejaVuSans-41"/>
      <use xlink:href="#DejaVuSans-6c" transform="translate(68.408203 0)"/>
      <use xlink:href="#DejaVuSans-6c" transform="translate(96.191406 0)"/>
      <use xlink:href="#DejaVuSans-65" transform="translate(123.974609 0)"/>
      <use xlink:href="#DejaVuSans-6c" transform="translate(185.498047 0)"/>
      <use xlink:href="#DejaVuSans-65" transform="translate(213.28125 0)"/>
      <use xlink:href="#DejaVuSans-73" transform="translate(274.804688 0)"/>
     </g>
    </g>
   </g>
   <g id="matplotlib.axis_2">
    <g id="ytick_1">
     <g id="line2d_6">
      <defs>
       <path id="ma39b51a21a" d="M 0 0 
L -3.5 0 
" style="stroke: #000000; stroke-width: 0.8"/>
      </defs>
      <g>
       <use xlink:href="#ma39b51a21a" x="57.6" y="307.584" style="stroke: #000000; stroke-width: 0.8"/>
      </g>
     </g>
     <g id="text_7">
      <!-- 0 -->
      <g transform="translate(44.2375 311.383219) scale(0.1 -0.1)">
       <use xlink:href="#DejaVuSans-30"/>
      </g>
     </g>
    </g>
    <g id="ytick_2">
     <g id="line2d_7">
      <g>
       <use xlink:href="#ma39b51a21a" x="57.6" y="223.104" style="stroke: #000000; stroke-width: 0.8"/>
      </g>
     </g>
     <g id="text_8">
      <!-- 1 -->
      <g transform="translate(44.2375 226.903219) scale(0.1 -0.1)">
       <defs>
        <path id="DejaVuSans-31" d="M 794 531 
L 1825 531 
L 1825 4091 
L 703 3866 
L 703 4441 
L 1819 4666 
L 2450 4666 
L 2450 531 
L 3481 531 
L 3481 0 
L 794 0 
L 794 531 
z
" transform="scale(0.015625)"/>
       </defs>
       <use xlink:href="#DejaVuSans-31"/>
      </g>
     </g>
    </g>
    <g id="ytick_3">
     <g id="line2d_8">
      <g>
       <use xlink:href="#ma39b51a21a" x="57.6" y="138.624" style="stroke: #000000; stroke-width: 0.8"/>
      </g>
     </g>
     <g id="text_9">
      <!-- 2 -->
      <g transform="translate(44.2375 142.423219) scale(0.1 -0.1)">
       <use xlink:href="#DejaVuSans-32"/>
      </g>
     </g>
    </g>
    <g id="ytick_4">
     <g id="line2d_9">
      <g>
       <use xlink:href="#ma39b51a21a" x="57.6" y="54.144" style="stroke: #000000; stroke-width: 0.8"/>
      </g>
     </g>
     <g id="text_10">
      <!-- 3 -->
      <g transform="translate(44.2375 57.943219) scale(0.1 -0.1)">
       <defs>
        <path id="DejaVuSans-33" d="M 2597 2516 
Q 3050 2419 3304 2112 
Q 3559 1806 3559 1356 
Q 3559 666 3084 287 
Q 2609 -91 1734 -91 
Q 1441 -91 1130 -33 
Q 819 25 488 141 
L 488 750 
Q 750 597 1062 519 
Q 1375 441 1716 441 
Q 2309 441 2620 675 
Q 2931 909 2931 1356 
Q 2931 1769 2642 2001 
Q 2353 2234 1838 2234 
L 1294 2234 
L 1294 2753 
L 1863 2753 
Q 2328 2753 2575 2939 
Q 2822 3125 2822 3475 
Q 2822 3834 2567 4026 
Q 2313 4219 1838 4219 
Q 1578 4219 1281 4162 
Q 984 4106 628 3988 
L 628 4550 
Q 988 4650 1302 4700 
Q 1616 4750 1894 4750 
Q 2613 4750 3031 4423 
Q 3450 4097 3450 3541 
Q 3450 3153 3228 2886 
Q 3006 2619 2597 2516 
z
" transform="scale(0.015625)"/>
       </defs>
       <use xlink:href="#DejaVuSans-33"/>
      </g>
     </g>
    </g>
    <g id="text_11">
     <!-- Count -->
     <g transform="translate(38.157812 189.376437) rotate(-90) scale(0.1 -0.1)">
      <defs>
       <path id="DejaVuSans-43" d="M 4122 4306 
L 4122 3641 
Q 3803 3938 3442 4084 
Q 3081 4231 2675 4231 
Q 1875 4231 1450 3742 
Q 1025 3253 1025 2328 
Q 1025 1406 1450 917 
Q 1875 428 2675 428 
Q 3081 428 3442 575 
Q 3803 722 4122 1019 
L 4122 359 
Q 3791 134 3420 21 
Q 3050 -91 2638 -91 
Q 1578 -91 968 557 
Q 359 1206 359 2328 
Q 359 3453 968 4101 
Q 1578 4750 2638 4750 
Q 3056 4750 3426 4639 
Q 3797 4528 4122 4306 
z
" transform="scale(0.015625)"/>
       <path id="DejaVuSans-6f" d="M 1959 3097 
Q 1497 3097 1228 2736 
Q 959 2375 959 1747 
Q 959 1119 1226 758 
Q 1494 397 1959 397 
Q 2419 397 2687 759 
Q 2956 1122 2956 1747 
Q 2956 2369 2687 2733 
Q 2419 3097 1959 3097 
z
M 1959 3584 
Q 2709 3584 3137 3096 
Q 3566 2609 3566 1747 
Q 3566 888 3137 398 
Q 2709 -91 1959 -91 
Q 1206 -91 779 398 
Q 353 888 353 1747 
Q 353 2609 779 3096 
Q 1206 3584 1959 3584 
z
" transform="scale(0.015625)"/>
       <path id="DejaVuSans-75" d="M 544 1381 
L 544 3500 
L 1119 3500 
L 1119 1403 
Q 1119 906 1312 657 
Q 1506 409 1894 409 
Q 2359 409 2629 706 
Q 2900 1003 2900 1516 
L 2900 3500 
L 3475 3500 
L 3475 0 
L 2900 0 
L 2900 538 
Q 2691 219 2414 64 
Q 2138 -91 1772 -91 
Q 1169 -91 856 284 
Q 544 659 544 1381 
z
M 1991 3584 
L 1991 3584 
z
" transform="scale(0.015625)"/>
       <path id="DejaVuSans-6e" d="M 3513 2113 
L 3513 0 
L 2938 0 
L 2938 2094 
Q 2938 2591 2744 2837 
Q 2550 3084 2163 3084 
Q 1697 3084 1428 2787 
Q 1159 2491 1159 1978 
L 1159 0 
L 581 0 
L 581 3500 
L 1159 3500 
L 1159 2956 
Q 1366 3272 1645 3428 
Q 1925 3584 2291 3584 
Q 2894 3584 3203 3211 
Q 3513 2838 3513 2113 
z
" transform="scale(0.015625)"/>
       <path id="DejaVuSans-74" d="M 1172 4494 
L 1172 3500 
L 2356 3500 
L 2356 3053 
L 1172 3053 
L 1172 1153 
Q 1172 725 1289 603 
Q 1406 481 1766 481 
L 2356 481 
L 2356 0 
L 1766 0 
Q 1100 0 847 248 
Q 594 497 594 1153 
L 594 3053 
L 172 3053 
L 172 3500 
L 594 3500 
L 594 4494 
L 1172 4494 
z
" transform="scale(0.015625)"/>
      </defs>
      <use xlink:href="#DejaVuSans-43"/>
      <use xlink:href="#DejaVuSans-6f" transform="translate(69.824219 0)"/>
      <use xlink:href="#DejaVuSans-75" transform="translate(131.005859 0)"/>
      <use xlink:href="#DejaVuSans-6e" transform="translate(194.384766 0)"/>
      <use xlink:href="#DejaVuSans-74" transform="translate(257.763672 0)"/>
     </g>
    </g>
   </g>
   <g id="line2d_10">
    <path d="M 73.832727 295.245981 
L 83.621307 292.708261 
L 90.147026 290.820088 
L 96.672746 288.693474 
L 101.567035 286.894279 
L 106.461325 284.882033 
L 111.355614 282.623802 
L 116.249904 280.089271 
L 121.144194 277.251955 
L 126.038483 274.090352 
L 130.932773 270.589058 
L 135.827063 266.739824 
L 140.721352 262.542433 
L 145.615642 258.005223 
L 150.509931 253.145116 
L 155.404221 247.987035 
L 161.929941 240.701859 
L 168.45566 233.033813 
L 176.61281 223.065203 
L 199.452828 194.785884 
L 204.347117 189.089668 
L 209.241407 183.69996 
L 214.135697 178.712305 
L 217.398556 175.659032 
L 220.661416 172.856455 
L 223.924276 170.331241 
L 227.187136 168.107319 
L 230.449995 166.204888 
L 233.712855 164.639518 
L 236.975715 163.42142 
L 240.238575 162.554952 
L 243.501434 162.038406 
L 246.764294 161.86411 
L 250.027154 162.018861 
L 253.290014 162.484666 
L 256.552873 163.239759 
L 259.815733 164.259835 
L 263.078593 165.519408 
L 266.341453 166.993216 
L 269.604312 168.657564 
L 274.498602 171.466502 
L 279.392892 174.60332 
L 284.287181 178.035594 
L 289.181471 181.75263 
L 294.075761 185.760868 
L 298.97005 190.075916 
L 303.86434 194.712662 
L 308.75863 199.675276 
L 313.652919 204.948907 
L 320.178639 212.393186 
L 328.335788 222.123522 
L 339.755797 235.728079 
L 344.650087 241.264612 
L 349.544376 246.498269 
L 354.438666 251.370586 
L 359.332956 255.850527 
L 364.227245 259.934911 
L 369.121535 263.645753 
L 374.015825 267.025114 
L 378.910114 270.128303 
L 385.435834 273.941684 
L 393.592983 278.376903 
L 398.487273 280.939713 
L 398.487273 280.939713 
" clip-path="url(#pc2d24032df)" style="fill: none; stroke: #4682b4; stroke-width: 1.5; stroke-linecap: square"/>
   </g>
   <g id="patch_48">
    <path d="M 57.6 307.584 
L 57.6 41.472 
" style="fill: none; stroke: #000000; stroke-width: 0.8; stroke-linejoin: miter; stroke-linecap: square"/>
   </g>
   <g id="patch_49">
    <path d="M 414.72 307.584 
L 414.72 41.472 
" style="fill: none; stroke: #000000; stroke-width: 0.8; stroke-linejoin: miter; stroke-linecap: square"/>
   </g>
   <g id="patch_50">
    <path d="M 57.6 307.584 
L 414.72 307.584 
" style="fill: none; stroke: #000000; stroke-width: 0.8; stroke-linejoin: miter; stroke-linecap: square"/>
   </g>
   <g id="patch_51">
    <path d="M 57.6 41.472 
L 414.72 41.472 
" style="fill: none; stroke: #000000; stroke-width: 0.8; stroke-linejoin: miter; stroke-linecap: square"/>
   </g>
  </g>
 </g>
 <defs>
  <clipPath id="pc2d24032df">
   <rect x="57.6" y="41.472" width="357.12" height="266.112"/>
  </clipPath>
 </defs>
</svg>
