<?xml version="1.0" encoding="utf-8" standalone="no"?>
<!DOCTYPE svg PUBLIC "-//W3C//DTD SVG 1.1//EN"
  "http://www.w3.org/Graphics/SVG/1.1/DTD/svg11.dtd">
<svg xmlns:xlink="http://www.w3.org/1999/xlink" width="460.8pt" height="345.6pt" viewBox="0 0 460.8 345.6" xmlns="http://www.w3.org/2000/svg" version="1.1">
 <metadata>
  <rdf:RDF xmlns:dc="http://purl.org/dc/elements/1.1/" xmlns:cc="http://creativecommons.org/ns#" xmlns:rdf="http://www.w3.org/1999/02/22-rdf-syntax-ns#">
   <cc:Work>
    <dc:type rdf:resource="http://purl.org/dc/dcmitype/StillImage"/>
    <dc:date>2025-05-14T11:49:20.875139</dc:date>
    <dc:format>image/svg+xml</dc:format>
    <dc:creator>
     <cc:Agent>
      <dc:title>Matplotlib v3.10.1, https://matplotlib.org/</dc:title>
     </cc:Agent>
    </dc:creator>
   </cc:Work>
  </rdf:RDF>
 </metadata>
 <defs>
  <style type="text/css">*{stroke-linejoin: round; stroke-linecap: butt}</style>
 </defs>
 <g id="figure_1">
  <g id="patch_1">
   <path d="M 0 345.6 
L 460.8 345.6 
L 460.8 0 
L 0 0 
z
" style="fill: #ffffff"/>
  </g>
  <g id="axes_1">
   <g id="patch_2">
    <path d="M 57.6 307.584 
L 414.72 307.584 
L 414.72 41.472 
L 57.6 41.472 
z
" style="fill: #ffffff"/>
   </g>
   <g id="patch_3">
    <path d="M 73.832727 307.584 
L 81.047273 307.584 
L 81.047273 300.972522 
L 73.832727 300.972522 
z
" clip-path="url(#p98142248e9)" style="fill: #4682b4; fill-opacity: 0.5; stroke: #000000; stroke-width: 0.721455; stroke-linejoin: miter"/>
   </g>
   <g id="patch_4">
    <path d="M 81.047273 307.584 
L 88.261818 307.584 
L 88.261818 298.768696 
L 81.047273 298.768696 
z
" clip-path="url(#p98142248e9)" style="fill: #4682b4; fill-opacity: 0.5; stroke: #000000; stroke-width: 0.721455; stroke-linejoin: miter"/>
   </g>
   <g id="patch_5">
    <path d="M 88.261818 307.584 
L 95.476364 307.584 
L 95.476364 303.176348 
L 88.261818 303.176348 
z
" clip-path="url(#p98142248e9)" style="fill: #4682b4; fill-opacity: 0.5; stroke: #000000; stroke-width: 0.721455; stroke-linejoin: miter"/>
   </g>
   <g id="patch_6">
    <path d="M 95.476364 307.584 
L 102.690909 307.584 
L 102.690909 298.768696 
L 95.476364 298.768696 
z
" clip-path="url(#p98142248e9)" style="fill: #4682b4; fill-opacity: 0.5; stroke: #000000; stroke-width: 0.721455; stroke-linejoin: miter"/>
   </g>
   <g id="patch_7">
    <path d="M 102.690909 307.584 
L 109.905455 307.584 
L 109.905455 294.361043 
L 102.690909 294.361043 
z
" clip-path="url(#p98142248e9)" style="fill: #4682b4; fill-opacity: 0.5; stroke: #000000; stroke-width: 0.721455; stroke-linejoin: miter"/>
   </g>
   <g id="patch_8">
    <path d="M 109.905455 307.584 
L 117.12 307.584 
L 117.12 287.749565 
L 109.905455 287.749565 
z
" clip-path="url(#p98142248e9)" style="fill: #4682b4; fill-opacity: 0.5; stroke: #000000; stroke-width: 0.721455; stroke-linejoin: miter"/>
   </g>
   <g id="patch_9">
    <path d="M 117.12 307.584 
L 124.334545 307.584 
L 124.334545 274.526609 
L 117.12 274.526609 
z
" clip-path="url(#p98142248e9)" style="fill: #4682b4; fill-opacity: 0.5; stroke: #000000; stroke-width: 0.721455; stroke-linejoin: miter"/>
   </g>
   <g id="patch_10">
    <path d="M 124.334545 307.584 
L 131.549091 307.584 
L 131.549091 256.896 
L 124.334545 256.896 
z
" clip-path="url(#p98142248e9)" style="fill: #4682b4; fill-opacity: 0.5; stroke: #000000; stroke-width: 0.721455; stroke-linejoin: miter"/>
   </g>
   <g id="patch_11">
    <path d="M 131.549091 307.584 
L 138.763636 307.584 
L 138.763636 239.265391 
L 131.549091 239.265391 
z
" clip-path="url(#p98142248e9)" style="fill: #4682b4; fill-opacity: 0.5; stroke: #000000; stroke-width: 0.721455; stroke-linejoin: miter"/>
   </g>
   <g id="patch_12">
    <path d="M 138.763636 307.584 
L 145.978182 307.584 
L 145.978182 252.488348 
L 138.763636 252.488348 
z
" clip-path="url(#p98142248e9)" style="fill: #4682b4; fill-opacity: 0.5; stroke: #000000; stroke-width: 0.721455; stroke-linejoin: miter"/>
   </g>
   <g id="patch_13">
    <path d="M 145.978182 307.584 
L 153.192727 307.584 
L 153.192727 228.246261 
L 145.978182 228.246261 
z
" clip-path="url(#p98142248e9)" style="fill: #4682b4; fill-opacity: 0.5; stroke: #000000; stroke-width: 0.721455; stroke-linejoin: miter"/>
   </g>
   <g id="patch_14">
    <path d="M 153.192727 307.584 
L 160.407273 307.584 
L 160.407273 208.411826 
L 153.192727 208.411826 
z
" clip-path="url(#p98142248e9)" style="fill: #4682b4; fill-opacity: 0.5; stroke: #000000; stroke-width: 0.721455; stroke-linejoin: miter"/>
   </g>
   <g id="patch_15">
    <path d="M 160.407273 307.584 
L 167.621818 307.584 
L 167.621818 188.577391 
L 160.407273 188.577391 
z
" clip-path="url(#p98142248e9)" style="fill: #4682b4; fill-opacity: 0.5; stroke: #000000; stroke-width: 0.721455; stroke-linejoin: miter"/>
   </g>
   <g id="patch_16">
    <path d="M 167.621818 307.584 
L 174.836364 307.584 
L 174.836364 164.335304 
L 167.621818 164.335304 
z
" clip-path="url(#p98142248e9)" style="fill: #4682b4; fill-opacity: 0.5; stroke: #000000; stroke-width: 0.721455; stroke-linejoin: miter"/>
   </g>
   <g id="patch_17">
    <path d="M 174.836364 307.584 
L 182.050909 307.584 
L 182.050909 153.316174 
L 174.836364 153.316174 
z
" clip-path="url(#p98142248e9)" style="fill: #4682b4; fill-opacity: 0.5; stroke: #000000; stroke-width: 0.721455; stroke-linejoin: miter"/>
   </g>
   <g id="patch_18">
    <path d="M 182.050909 307.584 
L 189.265455 307.584 
L 189.265455 142.297043 
L 182.050909 142.297043 
z
" clip-path="url(#p98142248e9)" style="fill: #4682b4; fill-opacity: 0.5; stroke: #000000; stroke-width: 0.721455; stroke-linejoin: miter"/>
   </g>
   <g id="patch_19">
    <path d="M 189.265455 307.584 
L 196.48 307.584 
L 196.48 155.52 
L 189.265455 155.52 
z
" clip-path="url(#p98142248e9)" style="fill: #4682b4; fill-opacity: 0.5; stroke: #000000; stroke-width: 0.721455; stroke-linejoin: miter"/>
   </g>
   <g id="patch_20">
    <path d="M 196.48 307.584 
L 203.694545 307.584 
L 203.694545 78.386087 
L 196.48 78.386087 
z
" clip-path="url(#p98142248e9)" style="fill: #4682b4; fill-opacity: 0.5; stroke: #000000; stroke-width: 0.721455; stroke-linejoin: miter"/>
   </g>
   <g id="patch_21">
    <path d="M 203.694545 307.584 
L 210.909091 307.584 
L 210.909091 87.201391 
L 203.694545 87.201391 
z
" clip-path="url(#p98142248e9)" style="fill: #4682b4; fill-opacity: 0.5; stroke: #000000; stroke-width: 0.721455; stroke-linejoin: miter"/>
   </g>
   <g id="patch_22">
    <path d="M 210.909091 307.584 
L 218.123636 307.584 
L 218.123636 67.366957 
L 210.909091 67.366957 
z
" clip-path="url(#p98142248e9)" style="fill: #4682b4; fill-opacity: 0.5; stroke: #000000; stroke-width: 0.721455; stroke-linejoin: miter"/>
   </g>
   <g id="patch_23">
    <path d="M 218.123636 307.584 
L 225.338182 307.584 
L 225.338182 58.551652 
L 218.123636 58.551652 
z
" clip-path="url(#p98142248e9)" style="fill: #4682b4; fill-opacity: 0.5; stroke: #000000; stroke-width: 0.721455; stroke-linejoin: miter"/>
   </g>
   <g id="patch_24">
    <path d="M 225.338182 307.584 
L 232.552727 307.584 
L 232.552727 69.570783 
L 225.338182 69.570783 
z
" clip-path="url(#p98142248e9)" style="fill: #4682b4; fill-opacity: 0.5; stroke: #000000; stroke-width: 0.721455; stroke-linejoin: miter"/>
   </g>
   <g id="patch_25">
    <path d="M 232.552727 307.584 
L 239.767273 307.584 
L 239.767273 54.144 
L 232.552727 54.144 
z
" clip-path="url(#p98142248e9)" style="fill: #4682b4; fill-opacity: 0.5; stroke: #000000; stroke-width: 0.721455; stroke-linejoin: miter"/>
   </g>
   <g id="patch_26">
    <path d="M 239.767273 307.584 
L 246.981818 307.584 
L 246.981818 62.959304 
L 239.767273 62.959304 
z
" clip-path="url(#p98142248e9)" style="fill: #4682b4; fill-opacity: 0.5; stroke: #000000; stroke-width: 0.721455; stroke-linejoin: miter"/>
   </g>
   <g id="patch_27">
    <path d="M 246.981818 307.584 
L 254.196364 307.584 
L 254.196364 89.405217 
L 246.981818 89.405217 
z
" clip-path="url(#p98142248e9)" style="fill: #4682b4; fill-opacity: 0.5; stroke: #000000; stroke-width: 0.721455; stroke-linejoin: miter"/>
   </g>
   <g id="patch_28">
    <path d="M 254.196364 307.584 
L 261.410909 307.584 
L 261.410909 82.793739 
L 254.196364 82.793739 
z
" clip-path="url(#p98142248e9)" style="fill: #4682b4; fill-opacity: 0.5; stroke: #000000; stroke-width: 0.721455; stroke-linejoin: miter"/>
   </g>
   <g id="patch_29">
    <path d="M 261.410909 307.584 
L 268.625455 307.584 
L 268.625455 109.239652 
L 261.410909 109.239652 
z
" clip-path="url(#p98142248e9)" style="fill: #4682b4; fill-opacity: 0.5; stroke: #000000; stroke-width: 0.721455; stroke-linejoin: miter"/>
   </g>
   <g id="patch_30">
    <path d="M 268.625455 307.584 
L 275.84 307.584 
L 275.84 124.666435 
L 268.625455 124.666435 
z
" clip-path="url(#p98142248e9)" style="fill: #4682b4; fill-opacity: 0.5; stroke: #000000; stroke-width: 0.721455; stroke-linejoin: miter"/>
   </g>
   <g id="patch_31">
    <path d="M 275.84 307.584 
L 283.054545 307.584 
L 283.054545 142.297043 
L 275.84 142.297043 
z
" clip-path="url(#p98142248e9)" style="fill: #4682b4; fill-opacity: 0.5; stroke: #000000; stroke-width: 0.721455; stroke-linejoin: miter"/>
   </g>
   <g id="patch_32">
    <path d="M 283.054545 307.584 
L 290.269091 307.584 
L 290.269091 197.392696 
L 283.054545 197.392696 
z
" clip-path="url(#p98142248e9)" style="fill: #4682b4; fill-opacity: 0.5; stroke: #000000; stroke-width: 0.721455; stroke-linejoin: miter"/>
   </g>
   <g id="patch_33">
    <path d="M 290.269091 307.584 
L 297.483636 307.584 
L 297.483636 201.800348 
L 290.269091 201.800348 
z
" clip-path="url(#p98142248e9)" style="fill: #4682b4; fill-opacity: 0.5; stroke: #000000; stroke-width: 0.721455; stroke-linejoin: miter"/>
   </g>
   <g id="patch_34">
    <path d="M 297.483636 307.584 
L 304.698182 307.584 
L 304.698182 221.634783 
L 297.483636 221.634783 
z
" clip-path="url(#p98142248e9)" style="fill: #4682b4; fill-opacity: 0.5; stroke: #000000; stroke-width: 0.721455; stroke-linejoin: miter"/>
   </g>
   <g id="patch_35">
    <path d="M 304.698182 307.584 
L 311.912727 307.584 
L 311.912727 228.246261 
L 304.698182 228.246261 
z
" clip-path="url(#p98142248e9)" style="fill: #4682b4; fill-opacity: 0.5; stroke: #000000; stroke-width: 0.721455; stroke-linejoin: miter"/>
   </g>
   <g id="patch_36">
    <path d="M 311.912727 307.584 
L 319.127273 307.584 
L 319.127273 252.488348 
L 311.912727 252.488348 
z
" clip-path="url(#p98142248e9)" style="fill: #4682b4; fill-opacity: 0.5; stroke: #000000; stroke-width: 0.721455; stroke-linejoin: miter"/>
   </g>
   <g id="patch_37">
    <path d="M 319.127273 307.584 
L 326.341818 307.584 
L 326.341818 248.080696 
L 319.127273 248.080696 
z
" clip-path="url(#p98142248e9)" style="fill: #4682b4; fill-opacity: 0.5; stroke: #000000; stroke-width: 0.721455; stroke-linejoin: miter"/>
   </g>
   <g id="patch_38">
    <path d="M 326.341818 307.584 
L 333.556364 307.584 
L 333.556364 265.711304 
L 326.341818 265.711304 
z
" clip-path="url(#p98142248e9)" style="fill: #4682b4; fill-opacity: 0.5; stroke: #000000; stroke-width: 0.721455; stroke-linejoin: miter"/>
   </g>
   <g id="patch_39">
    <path d="M 333.556364 307.584 
L 340.770909 307.584 
L 340.770909 276.730435 
L 333.556364 276.730435 
z
" clip-path="url(#p98142248e9)" style="fill: #4682b4; fill-opacity: 0.5; stroke: #000000; stroke-width: 0.721455; stroke-linejoin: miter"/>
   </g>
   <g id="patch_40">
    <path d="M 340.770909 307.584 
L 347.985455 307.584 
L 347.985455 292.157217 
L 340.770909 292.157217 
z
" clip-path="url(#p98142248e9)" style="fill: #4682b4; fill-opacity: 0.5; stroke: #000000; stroke-width: 0.721455; stroke-linejoin: miter"/>
   </g>
   <g id="patch_41">
    <path d="M 347.985455 307.584 
L 355.2 307.584 
L 355.2 294.361043 
L 347.985455 294.361043 
z
" clip-path="url(#p98142248e9)" style="fill: #4682b4; fill-opacity: 0.5; stroke: #000000; stroke-width: 0.721455; stroke-linejoin: miter"/>
   </g>
   <g id="patch_42">
    <path d="M 355.2 307.584 
L 362.414545 307.584 
L 362.414545 300.972522 
L 355.2 300.972522 
z
" clip-path="url(#p98142248e9)" style="fill: #4682b4; fill-opacity: 0.5; stroke: #000000; stroke-width: 0.721455; stroke-linejoin: miter"/>
   </g>
   <g id="patch_43">
    <path d="M 362.414545 307.584 
L 369.629091 307.584 
L 369.629091 305.380174 
L 362.414545 305.380174 
z
" clip-path="url(#p98142248e9)" style="fill: #4682b4; fill-opacity: 0.5; stroke: #000000; stroke-width: 0.721455; stroke-linejoin: miter"/>
   </g>
   <g id="patch_44">
    <path d="M 369.629091 307.584 
L 376.843636 307.584 
L 376.843636 305.380174 
L 369.629091 305.380174 
z
" clip-path="url(#p98142248e9)" style="fill: #4682b4; fill-opacity: 0.5; stroke: #000000; stroke-width: 0.721455; stroke-linejoin: miter"/>
   </g>
   <g id="patch_45">
    <path d="M 376.843636 307.584 
L 384.058182 307.584 
L 384.058182 307.584 
L 376.843636 307.584 
z
" clip-path="url(#p98142248e9)" style="fill: #4682b4; fill-opacity: 0.5; stroke: #000000; stroke-width: 0.721455; stroke-linejoin: miter"/>
   </g>
   <g id="patch_46">
    <path d="M 384.058182 307.584 
L 391.272727 307.584 
L 391.272727 305.380174 
L 384.058182 305.380174 
z
" clip-path="url(#p98142248e9)" style="fill: #4682b4; fill-opacity: 0.5; stroke: #000000; stroke-width: 0.721455; stroke-linejoin: miter"/>
   </g>
   <g id="patch_47">
    <path d="M 391.272727 307.584 
L 398.487273 307.584 
L 398.487273 300.972522 
L 391.272727 300.972522 
z
" clip-path="url(#p98142248e9)" style="fill: #4682b4; fill-opacity: 0.5; stroke: #000000; stroke-width: 0.721455; stroke-linejoin: miter"/>
   </g>
   <g id="matplotlib.axis_1">
    <g id="xtick_1">
     <g id="line2d_1">
      <defs>
       <path id="md2f0db2b22" d="M 0 0 
L 0 3.5 
" style="stroke: #000000; stroke-width: 0.8"/>
      </defs>
      <g>
       <use xlink:href="#md2f0db2b22" x="71.639115" y="307.584" style="stroke: #000000; stroke-width: 0.8"/>
      </g>
     </g>
     <g id="text_1">
      <!-- 0 -->
      <g transform="translate(68.457865 322.182437) scale(0.1 -0.1)">
       <defs>
        <path id="DejaVuSans-30" d="M 2034 4250 
Q 1547 4250 1301 3770 
Q 1056 3291 1056 2328 
Q 1056 1369 1301 889 
Q 1547 409 2034 409 
Q 2525 409 2770 889 
Q 3016 1369 3016 2328 
Q 3016 3291 2770 3770 
Q 2525 4250 2034 4250 
z
M 2034 4750 
Q 2819 4750 3233 4129 
Q 3647 3509 3647 2328 
Q 3647 1150 3233 529 
Q 2819 -91 2034 -91 
Q 1250 -91 836 529 
Q 422 1150 422 2328 
Q 422 3509 836 4129 
Q 1250 4750 2034 4750 
z
" transform="scale(0.015625)"/>
       </defs>
       <use xlink:href="#DejaVuSans-30"/>
      </g>
     </g>
    </g>
    <g id="xtick_2">
     <g id="line2d_2">
      <g>
       <use xlink:href="#md2f0db2b22" x="134.313738" y="307.584" style="stroke: #000000; stroke-width: 0.8"/>
      </g>
     </g>
     <g id="text_2">
      <!-- 200 -->
      <g transform="translate(124.769988 322.182437) scale(0.1 -0.1)">
       <defs>
        <path id="DejaVuSans-32" d="M 1228 531 
L 3431 531 
L 3431 0 
L 469 0 
L 469 531 
Q 828 903 1448 1529 
Q 2069 2156 2228 2338 
Q 2531 2678 2651 2914 
Q 2772 3150 2772 3378 
Q 2772 3750 2511 3984 
Q 2250 4219 1831 4219 
Q 1534 4219 1204 4116 
Q 875 4013 500 3803 
L 500 4441 
Q 881 4594 1212 4672 
Q 1544 4750 1819 4750 
Q 2544 4750 2975 4387 
Q 3406 4025 3406 3419 
Q 3406 3131 3298 2873 
Q 3191 2616 2906 2266 
Q 2828 2175 2409 1742 
Q 1991 1309 1228 531 
z
" transform="scale(0.015625)"/>
       </defs>
       <use xlink:href="#DejaVuSans-32"/>
       <use xlink:href="#DejaVuSans-30" transform="translate(63.623047 0)"/>
       <use xlink:href="#DejaVuSans-30" transform="translate(127.246094 0)"/>
      </g>
     </g>
    </g>
    <g id="xtick_3">
     <g id="line2d_3">
      <g>
       <use xlink:href="#md2f0db2b22" x="196.988361" y="307.584" style="stroke: #000000; stroke-width: 0.8"/>
      </g>
     </g>
     <g id="text_3">
      <!-- 400 -->
      <g transform="translate(187.444611 322.182437) scale(0.1 -0.1)">
       <defs>
        <path id="DejaVuSans-34" d="M 2419 4116 
L 825 1625 
L 2419 1625 
L 2419 4116 
z
M 2253 4666 
L 3047 4666 
L 3047 1625 
L 3713 1625 
L 3713 1100 
L 3047 1100 
L 3047 0 
L 2419 0 
L 2419 1100 
L 313 1100 
L 313 1709 
L 2253 4666 
z
" transform="scale(0.015625)"/>
       </defs>
       <use xlink:href="#DejaVuSans-34"/>
       <use xlink:href="#DejaVuSans-30" transform="translate(63.623047 0)"/>
       <use xlink:href="#DejaVuSans-30" transform="translate(127.246094 0)"/>
      </g>
     </g>
    </g>
    <g id="xtick_4">
     <g id="line2d_4">
      <g>
       <use xlink:href="#md2f0db2b22" x="259.662984" y="307.584" style="stroke: #000000; stroke-width: 0.8"/>
      </g>
     </g>
     <g id="text_4">
      <!-- 600 -->
      <g transform="translate(250.119234 322.182437) scale(0.1 -0.1)">
       <defs>
        <path id="DejaVuSans-36" d="M 2113 2584 
Q 1688 2584 1439 2293 
Q 1191 2003 1191 1497 
Q 1191 994 1439 701 
Q 1688 409 2113 409 
Q 2538 409 2786 701 
Q 3034 994 3034 1497 
Q 3034 2003 2786 2293 
Q 2538 2584 2113 2584 
z
M 3366 4563 
L 3366 3988 
Q 3128 4100 2886 4159 
Q 2644 4219 2406 4219 
Q 1781 4219 1451 3797 
Q 1122 3375 1075 2522 
Q 1259 2794 1537 2939 
Q 1816 3084 2150 3084 
Q 2853 3084 3261 2657 
Q 3669 2231 3669 1497 
Q 3669 778 3244 343 
Q 2819 -91 2113 -91 
Q 1303 -91 875 529 
Q 447 1150 447 2328 
Q 447 3434 972 4092 
Q 1497 4750 2381 4750 
Q 2619 4750 2861 4703 
Q 3103 4656 3366 4563 
z
" transform="scale(0.015625)"/>
       </defs>
       <use xlink:href="#DejaVuSans-36"/>
       <use xlink:href="#DejaVuSans-30" transform="translate(63.623047 0)"/>
       <use xlink:href="#DejaVuSans-30" transform="translate(127.246094 0)"/>
      </g>
     </g>
    </g>
    <g id="xtick_5">
     <g id="line2d_5">
      <g>
       <use xlink:href="#md2f0db2b22" x="322.337606" y="307.584" style="stroke: #000000; stroke-width: 0.8"/>
      </g>
     </g>
     <g id="text_5">
      <!-- 800 -->
      <g transform="translate(312.793856 322.182437) scale(0.1 -0.1)">
       <defs>
        <path id="DejaVuSans-38" d="M 2034 2216 
Q 1584 2216 1326 1975 
Q 1069 1734 1069 1313 
Q 1069 891 1326 650 
Q 1584 409 2034 409 
Q 2484 409 2743 651 
Q 3003 894 3003 1313 
Q 3003 1734 2745 1975 
Q 2488 2216 2034 2216 
z
M 1403 2484 
Q 997 2584 770 2862 
Q 544 3141 544 3541 
Q 544 4100 942 4425 
Q 1341 4750 2034 4750 
Q 2731 4750 3128 4425 
Q 3525 4100 3525 3541 
Q 3525 3141 3298 2862 
Q 3072 2584 2669 2484 
Q 3125 2378 3379 2068 
Q 3634 1759 3634 1313 
Q 3634 634 3220 271 
Q 2806 -91 2034 -91 
Q 1263 -91 848 271 
Q 434 634 434 1313 
Q 434 1759 690 2068 
Q 947 2378 1403 2484 
z
M 1172 3481 
Q 1172 3119 1398 2916 
Q 1625 2713 2034 2713 
Q 2441 2713 2670 2916 
Q 2900 3119 2900 3481 
Q 2900 3844 2670 4047 
Q 2441 4250 2034 4250 
Q 1625 4250 1398 4047 
Q 1172 3844 1172 3481 
z
" transform="scale(0.015625)"/>
       </defs>
       <use xlink:href="#DejaVuSans-38"/>
       <use xlink:href="#DejaVuSans-30" transform="translate(63.623047 0)"/>
       <use xlink:href="#DejaVuSans-30" transform="translate(127.246094 0)"/>
      </g>
     </g>
    </g>
    <g id="xtick_6">
     <g id="line2d_6">
      <g>
       <use xlink:href="#md2f0db2b22" x="385.012229" y="307.584" style="stroke: #000000; stroke-width: 0.8"/>
      </g>
     </g>
     <g id="text_6">
      <!-- 1000 -->
      <g transform="translate(372.287229 322.182437) scale(0.1 -0.1)">
       <defs>
        <path id="DejaVuSans-31" d="M 794 531 
L 1825 531 
L 1825 4091 
L 703 3866 
L 703 4441 
L 1819 4666 
L 2450 4666 
L 2450 531 
L 3481 531 
L 3481 0 
L 794 0 
L 794 531 
z
" transform="scale(0.015625)"/>
       </defs>
       <use xlink:href="#DejaVuSans-31"/>
       <use xlink:href="#DejaVuSans-30" transform="translate(63.623047 0)"/>
       <use xlink:href="#DejaVuSans-30" transform="translate(127.246094 0)"/>
       <use xlink:href="#DejaVuSans-30" transform="translate(190.869141 0)"/>
      </g>
     </g>
    </g>
    <g id="text_7">
     <!-- Pairwise Relatedness -->
     <g transform="translate(183.668594 335.860562) scale(0.1 -0.1)">
      <defs>
       <path id="DejaVuSans-50" d="M 1259 4147 
L 1259 2394 
L 2053 2394 
Q 2494 2394 2734 2622 
Q 2975 2850 2975 3272 
Q 2975 3691 2734 3919 
Q 2494 4147 2053 4147 
L 1259 4147 
z
M 628 4666 
L 2053 4666 
Q 2838 4666 3239 4311 
Q 3641 3956 3641 3272 
Q 3641 2581 3239 2228 
Q 2838 1875 2053 1875 
L 1259 1875 
L 1259 0 
L 628 0 
L 628 4666 
z
" transform="scale(0.015625)"/>
       <path id="DejaVuSans-61" d="M 2194 1759 
Q 1497 1759 1228 1600 
Q 959 1441 959 1056 
Q 959 750 1161 570 
Q 1363 391 1709 391 
Q 2188 391 2477 730 
Q 2766 1069 2766 1631 
L 2766 1759 
L 2194 1759 
z
M 3341 1997 
L 3341 0 
L 2766 0 
L 2766 531 
Q 2569 213 2275 61 
Q 1981 -91 1556 -91 
Q 1019 -91 701 211 
Q 384 513 384 1019 
Q 384 1609 779 1909 
Q 1175 2209 1959 2209 
L 2766 2209 
L 2766 2266 
Q 2766 2663 2505 2880 
Q 2244 3097 1772 3097 
Q 1472 3097 1187 3025 
Q 903 2953 641 2809 
L 641 3341 
Q 956 3463 1253 3523 
Q 1550 3584 1831 3584 
Q 2591 3584 2966 3190 
Q 3341 2797 3341 1997 
z
" transform="scale(0.015625)"/>
       <path id="DejaVuSans-69" d="M 603 3500 
L 1178 3500 
L 1178 0 
L 603 0 
L 603 3500 
z
M 603 4863 
L 1178 4863 
L 1178 4134 
L 603 4134 
L 603 4863 
z
" transform="scale(0.015625)"/>
       <path id="DejaVuSans-72" d="M 2631 2963 
Q 2534 3019 2420 3045 
Q 2306 3072 2169 3072 
Q 1681 3072 1420 2755 
Q 1159 2438 1159 1844 
L 1159 0 
L 581 0 
L 581 3500 
L 1159 3500 
L 1159 2956 
Q 1341 3275 1631 3429 
Q 1922 3584 2338 3584 
Q 2397 3584 2469 3576 
Q 2541 3569 2628 3553 
L 2631 2963 
z
" transform="scale(0.015625)"/>
       <path id="DejaVuSans-77" d="M 269 3500 
L 844 3500 
L 1563 769 
L 2278 3500 
L 2956 3500 
L 3675 769 
L 4391 3500 
L 4966 3500 
L 4050 0 
L 3372 0 
L 2619 2869 
L 1863 0 
L 1184 0 
L 269 3500 
z
" transform="scale(0.015625)"/>
       <path id="DejaVuSans-73" d="M 2834 3397 
L 2834 2853 
Q 2591 2978 2328 3040 
Q 2066 3103 1784 3103 
Q 1356 3103 1142 2972 
Q 928 2841 928 2578 
Q 928 2378 1081 2264 
Q 1234 2150 1697 2047 
L 1894 2003 
Q 2506 1872 2764 1633 
Q 3022 1394 3022 966 
Q 3022 478 2636 193 
Q 2250 -91 1575 -91 
Q 1294 -91 989 -36 
Q 684 19 347 128 
L 347 722 
Q 666 556 975 473 
Q 1284 391 1588 391 
Q 1994 391 2212 530 
Q 2431 669 2431 922 
Q 2431 1156 2273 1281 
Q 2116 1406 1581 1522 
L 1381 1569 
Q 847 1681 609 1914 
Q 372 2147 372 2553 
Q 372 3047 722 3315 
Q 1072 3584 1716 3584 
Q 2034 3584 2315 3537 
Q 2597 3491 2834 3397 
z
" transform="scale(0.015625)"/>
       <path id="DejaVuSans-65" d="M 3597 1894 
L 3597 1613 
L 953 1613 
Q 991 1019 1311 708 
Q 1631 397 2203 397 
Q 2534 397 2845 478 
Q 3156 559 3463 722 
L 3463 178 
Q 3153 47 2828 -22 
Q 2503 -91 2169 -91 
Q 1331 -91 842 396 
Q 353 884 353 1716 
Q 353 2575 817 3079 
Q 1281 3584 2069 3584 
Q 2775 3584 3186 3129 
Q 3597 2675 3597 1894 
z
M 3022 2063 
Q 3016 2534 2758 2815 
Q 2500 3097 2075 3097 
Q 1594 3097 1305 2825 
Q 1016 2553 972 2059 
L 3022 2063 
z
" transform="scale(0.015625)"/>
       <path id="DejaVuSans-20" transform="scale(0.015625)"/>
       <path id="DejaVuSans-52" d="M 2841 2188 
Q 3044 2119 3236 1894 
Q 3428 1669 3622 1275 
L 4263 0 
L 3584 0 
L 2988 1197 
Q 2756 1666 2539 1819 
Q 2322 1972 1947 1972 
L 1259 1972 
L 1259 0 
L 628 0 
L 628 4666 
L 2053 4666 
Q 2853 4666 3247 4331 
Q 3641 3997 3641 3322 
Q 3641 2881 3436 2590 
Q 3231 2300 2841 2188 
z
M 1259 4147 
L 1259 2491 
L 2053 2491 
Q 2509 2491 2742 2702 
Q 2975 2913 2975 3322 
Q 2975 3731 2742 3939 
Q 2509 4147 2053 4147 
L 1259 4147 
z
" transform="scale(0.015625)"/>
       <path id="DejaVuSans-6c" d="M 603 4863 
L 1178 4863 
L 1178 0 
L 603 0 
L 603 4863 
z
" transform="scale(0.015625)"/>
       <path id="DejaVuSans-74" d="M 1172 4494 
L 1172 3500 
L 2356 3500 
L 2356 3053 
L 1172 3053 
L 1172 1153 
Q 1172 725 1289 603 
Q 1406 481 1766 481 
L 2356 481 
L 2356 0 
L 1766 0 
Q 1100 0 847 248 
Q 594 497 594 1153 
L 594 3053 
L 172 3053 
L 172 3500 
L 594 3500 
L 594 4494 
L 1172 4494 
z
" transform="scale(0.015625)"/>
       <path id="DejaVuSans-64" d="M 2906 2969 
L 2906 4863 
L 3481 4863 
L 3481 0 
L 2906 0 
L 2906 525 
Q 2725 213 2448 61 
Q 2172 -91 1784 -91 
Q 1150 -91 751 415 
Q 353 922 353 1747 
Q 353 2572 751 3078 
Q 1150 3584 1784 3584 
Q 2172 3584 2448 3432 
Q 2725 3281 2906 2969 
z
M 947 1747 
Q 947 1113 1208 752 
Q 1469 391 1925 391 
Q 2381 391 2643 752 
Q 2906 1113 2906 1747 
Q 2906 2381 2643 2742 
Q 2381 3103 1925 3103 
Q 1469 3103 1208 2742 
Q 947 2381 947 1747 
z
" transform="scale(0.015625)"/>
       <path id="DejaVuSans-6e" d="M 3513 2113 
L 3513 0 
L 2938 0 
L 2938 2094 
Q 2938 2591 2744 2837 
Q 2550 3084 2163 3084 
Q 1697 3084 1428 2787 
Q 1159 2491 1159 1978 
L 1159 0 
L 581 0 
L 581 3500 
L 1159 3500 
L 1159 2956 
Q 1366 3272 1645 3428 
Q 1925 3584 2291 3584 
Q 2894 3584 3203 3211 
Q 3513 2838 3513 2113 
z
" transform="scale(0.015625)"/>
      </defs>
      <use xlink:href="#DejaVuSans-50"/>
      <use xlink:href="#DejaVuSans-61" transform="translate(55.802734 0)"/>
      <use xlink:href="#DejaVuSans-69" transform="translate(117.082031 0)"/>
      <use xlink:href="#DejaVuSans-72" transform="translate(144.865234 0)"/>
      <use xlink:href="#DejaVuSans-77" transform="translate(185.978516 0)"/>
      <use xlink:href="#DejaVuSans-69" transform="translate(267.765625 0)"/>
      <use xlink:href="#DejaVuSans-73" transform="translate(295.548828 0)"/>
      <use xlink:href="#DejaVuSans-65" transform="translate(347.648438 0)"/>
      <use xlink:href="#DejaVuSans-20" transform="translate(409.171875 0)"/>
      <use xlink:href="#DejaVuSans-52" transform="translate(440.958984 0)"/>
      <use xlink:href="#DejaVuSans-65" transform="translate(505.941406 0)"/>
      <use xlink:href="#DejaVuSans-6c" transform="translate(567.464844 0)"/>
      <use xlink:href="#DejaVuSans-61" transform="translate(595.248047 0)"/>
      <use xlink:href="#DejaVuSans-74" transform="translate(656.527344 0)"/>
      <use xlink:href="#DejaVuSans-65" transform="translate(695.736328 0)"/>
      <use xlink:href="#DejaVuSans-64" transform="translate(757.259766 0)"/>
      <use xlink:href="#DejaVuSans-6e" transform="translate(820.736328 0)"/>
      <use xlink:href="#DejaVuSans-65" transform="translate(884.115234 0)"/>
      <use xlink:href="#DejaVuSans-73" transform="translate(945.638672 0)"/>
      <use xlink:href="#DejaVuSans-73" transform="translate(997.738281 0)"/>
     </g>
    </g>
   </g>
   <g id="matplotlib.axis_2">
    <g id="ytick_1">
     <g id="line2d_7">
      <defs>
       <path id="m9eec481a0d" d="M 0 0 
L -3.5 0 
" style="stroke: #000000; stroke-width: 0.8"/>
      </defs>
      <g>
       <use xlink:href="#m9eec481a0d" x="57.6" y="307.584" style="stroke: #000000; stroke-width: 0.8"/>
      </g>
     </g>
     <g id="text_8">
      <!-- 0 -->
      <g transform="translate(44.2375 311.383219) scale(0.1 -0.1)">
       <use xlink:href="#DejaVuSans-30"/>
      </g>
     </g>
    </g>
    <g id="ytick_2">
     <g id="line2d_8">
      <g>
       <use xlink:href="#m9eec481a0d" x="57.6" y="263.507478" style="stroke: #000000; stroke-width: 0.8"/>
      </g>
     </g>
     <g id="text_9">
      <!-- 20 -->
      <g transform="translate(37.875 267.306697) scale(0.1 -0.1)">
       <use xlink:href="#DejaVuSans-32"/>
       <use xlink:href="#DejaVuSans-30" transform="translate(63.623047 0)"/>
      </g>
     </g>
    </g>
    <g id="ytick_3">
     <g id="line2d_9">
      <g>
       <use xlink:href="#m9eec481a0d" x="57.6" y="219.430957" style="stroke: #000000; stroke-width: 0.8"/>
      </g>
     </g>
     <g id="text_10">
      <!-- 40 -->
      <g transform="translate(37.875 223.230175) scale(0.1 -0.1)">
       <use xlink:href="#DejaVuSans-34"/>
       <use xlink:href="#DejaVuSans-30" transform="translate(63.623047 0)"/>
      </g>
     </g>
    </g>
    <g id="ytick_4">
     <g id="line2d_10">
      <g>
       <use xlink:href="#m9eec481a0d" x="57.6" y="175.354435" style="stroke: #000000; stroke-width: 0.8"/>
      </g>
     </g>
     <g id="text_11">
      <!-- 60 -->
      <g transform="translate(37.875 179.153654) scale(0.1 -0.1)">
       <use xlink:href="#DejaVuSans-36"/>
       <use xlink:href="#DejaVuSans-30" transform="translate(63.623047 0)"/>
      </g>
     </g>
    </g>
    <g id="ytick_5">
     <g id="line2d_11">
      <g>
       <use xlink:href="#m9eec481a0d" x="57.6" y="131.277913" style="stroke: #000000; stroke-width: 0.8"/>
      </g>
     </g>
     <g id="text_12">
      <!-- 80 -->
      <g transform="translate(37.875 135.077132) scale(0.1 -0.1)">
       <use xlink:href="#DejaVuSans-38"/>
       <use xlink:href="#DejaVuSans-30" transform="translate(63.623047 0)"/>
      </g>
     </g>
    </g>
    <g id="ytick_6">
     <g id="line2d_12">
      <g>
       <use xlink:href="#m9eec481a0d" x="57.6" y="87.201391" style="stroke: #000000; stroke-width: 0.8"/>
      </g>
     </g>
     <g id="text_13">
      <!-- 100 -->
      <g transform="translate(31.5125 91.00061) scale(0.1 -0.1)">
       <use xlink:href="#DejaVuSans-31"/>
       <use xlink:href="#DejaVuSans-30" transform="translate(63.623047 0)"/>
       <use xlink:href="#DejaVuSans-30" transform="translate(127.246094 0)"/>
      </g>
     </g>
    </g>
    <g id="ytick_7">
     <g id="line2d_13">
      <g>
       <use xlink:href="#m9eec481a0d" x="57.6" y="43.12487" style="stroke: #000000; stroke-width: 0.8"/>
      </g>
     </g>
     <g id="text_14">
      <!-- 120 -->
      <g transform="translate(31.5125 46.924088) scale(0.1 -0.1)">
       <use xlink:href="#DejaVuSans-31"/>
       <use xlink:href="#DejaVuSans-32" transform="translate(63.623047 0)"/>
       <use xlink:href="#DejaVuSans-30" transform="translate(127.246094 0)"/>
      </g>
     </g>
    </g>
    <g id="text_15">
     <!-- Count -->
     <g transform="translate(25.432812 189.376437) rotate(-90) scale(0.1 -0.1)">
      <defs>
       <path id="DejaVuSans-43" d="M 4122 4306 
L 4122 3641 
Q 3803 3938 3442 4084 
Q 3081 4231 2675 4231 
Q 1875 4231 1450 3742 
Q 1025 3253 1025 2328 
Q 1025 1406 1450 917 
Q 1875 428 2675 428 
Q 3081 428 3442 575 
Q 3803 722 4122 1019 
L 4122 359 
Q 3791 134 3420 21 
Q 3050 -91 2638 -91 
Q 1578 -91 968 557 
Q 359 1206 359 2328 
Q 359 3453 968 4101 
Q 1578 4750 2638 4750 
Q 3056 4750 3426 4639 
Q 3797 4528 4122 4306 
z
" transform="scale(0.015625)"/>
       <path id="DejaVuSans-6f" d="M 1959 3097 
Q 1497 3097 1228 2736 
Q 959 2375 959 1747 
Q 959 1119 1226 758 
Q 1494 397 1959 397 
Q 2419 397 2687 759 
Q 2956 1122 2956 1747 
Q 2956 2369 2687 2733 
Q 2419 3097 1959 3097 
z
M 1959 3584 
Q 2709 3584 3137 3096 
Q 3566 2609 3566 1747 
Q 3566 888 3137 398 
Q 2709 -91 1959 -91 
Q 1206 -91 779 398 
Q 353 888 353 1747 
Q 353 2609 779 3096 
Q 1206 3584 1959 3584 
z
" transform="scale(0.015625)"/>
       <path id="DejaVuSans-75" d="M 544 1381 
L 544 3500 
L 1119 3500 
L 1119 1403 
Q 1119 906 1312 657 
Q 1506 409 1894 409 
Q 2359 409 2629 706 
Q 2900 1003 2900 1516 
L 2900 3500 
L 3475 3500 
L 3475 0 
L 2900 0 
L 2900 538 
Q 2691 219 2414 64 
Q 2138 -91 1772 -91 
Q 1169 -91 856 284 
Q 544 659 544 1381 
z
M 1991 3584 
L 1991 3584 
z
" transform="scale(0.015625)"/>
      </defs>
      <use xlink:href="#DejaVuSans-43"/>
      <use xlink:href="#DejaVuSans-6f" transform="translate(69.824219 0)"/>
      <use xlink:href="#DejaVuSans-75" transform="translate(131.005859 0)"/>
      <use xlink:href="#DejaVuSans-6e" transform="translate(194.384766 0)"/>
      <use xlink:href="#DejaVuSans-74" transform="translate(257.763672 0)"/>
     </g>
    </g>
   </g>
   <g id="line2d_14">
    <path d="M 73.832727 304.043973 
L 91.778456 299.398455 
L 95.041316 298.189651 
L 98.304175 296.631309 
L 101.567035 294.632506 
L 104.829895 292.124606 
L 108.092755 289.06461 
L 111.355614 285.439126 
L 114.618474 281.270378 
L 117.881334 276.621648 
L 121.144194 271.596622 
L 127.669913 260.948784 
L 143.984212 233.850498 
L 147.247072 227.834632 
L 150.509931 221.318362 
L 153.772791 214.239761 
L 157.035651 206.623093 
L 161.929941 194.482647 
L 168.45566 178.193988 
L 171.71852 170.556807 
L 174.98138 163.433822 
L 179.875669 153.53526 
L 184.769959 143.770566 
L 188.032819 136.751882 
L 191.295678 129.024289 
L 194.558538 120.558848 
L 204.347117 93.917455 
L 207.609977 86.242182 
L 209.241407 82.864343 
L 210.872837 79.826443 
L 212.504267 77.13661 
L 214.135697 74.790327 
L 215.767127 72.772192 
L 217.398556 71.05838 
L 219.029986 69.619641 
L 220.661416 68.424633 
L 222.292846 67.443308 
L 223.924276 66.650086 
L 225.555706 66.026456 
L 227.187136 65.562721 
L 228.818566 65.258653 
L 230.449995 65.122939 
L 232.081425 65.171481 
L 233.712855 65.42477 
L 235.344285 65.904697 
L 236.975715 66.631243 
L 238.607145 67.619524 
L 240.238575 68.877544 
L 241.870005 70.404945 
L 243.501434 72.192831 
L 245.132864 74.224618 
L 246.764294 76.477712 
L 250.027154 81.541341 
L 253.290014 87.174774 
L 256.552873 93.229576 
L 259.815733 99.676143 
L 263.078593 106.621953 
L 266.341453 114.274941 
L 269.604312 122.85192 
L 272.867172 132.459798 
L 276.130032 143.002147 
L 287.550041 181.693826 
L 290.812901 191.527629 
L 294.075761 200.426792 
L 297.33862 208.437306 
L 300.60148 215.689967 
L 303.86434 222.336209 
L 307.1272 228.509699 
L 312.021489 237.113011 
L 316.915779 245.192739 
L 325.072928 258.166782 
L 331.598648 268.277386 
L 336.492937 275.457877 
L 339.755797 279.933313 
L 343.018657 284.106436 
L 346.281517 287.944756 
L 349.544376 291.419605 
L 352.807236 294.504917 
L 356.070096 297.182231 
L 359.332956 299.446436 
L 362.595815 301.307016 
L 365.858675 302.784112 
L 369.121535 303.902927 
L 372.384395 304.690997 
L 375.647254 305.180674 
L 378.910114 305.415662 
L 383.804404 305.430188 
L 391.961553 305.253808 
L 396.855843 305.419297 
L 398.487273 305.538438 
L 398.487273 305.538438 
" clip-path="url(#p98142248e9)" style="fill: none; stroke: #4682b4; stroke-width: 1.5; stroke-linecap: square"/>
   </g>
   <g id="patch_48">
    <path d="M 57.6 307.584 
L 57.6 41.472 
" style="fill: none; stroke: #000000; stroke-width: 0.8; stroke-linejoin: miter; stroke-linecap: square"/>
   </g>
   <g id="patch_49">
    <path d="M 414.72 307.584 
L 414.72 41.472 
" style="fill: none; stroke: #000000; stroke-width: 0.8; stroke-linejoin: miter; stroke-linecap: square"/>
   </g>
   <g id="patch_50">
    <path d="M 57.6 307.584 
L 414.72 307.584 
" style="fill: none; stroke: #000000; stroke-width: 0.8; stroke-linejoin: miter; stroke-linecap: square"/>
   </g>
   <g id="patch_51">
    <path d="M 57.6 41.472 
L 414.72 41.472 
" style="fill: none; stroke: #000000; stroke-width: 0.8; stroke-linejoin: miter; stroke-linecap: square"/>
   </g>
  </g>
 </g>
 <defs>
  <clipPath id="p98142248e9">
   <rect x="57.6" y="41.472" width="357.12" height="266.112"/>
  </clipPath>
 </defs>
</svg>
